<svg xmlns="http://www.w3.org/2000/svg" xmlns:xlink="http://www.w3.org/1999/xlink" xmlns:lucid="lucid" width="1242" height="1405.5"><g transform="translate(-39 -18.5)" lucid:page-tab-id="0_0"><path d="M0 0h1308.8v1451.93H0z" fill="#fff"/><path d="M243.6 40h301.3v140.6H243.6z" stroke="#3a414a" stroke-width="3" fill="#fff"/><use xlink:href="#a" transform="matrix(1,0,0,1,243.60000000000002,40) translate(103.55499999999999 76.0875)"/><path d="M760.52 108a8 8 0 0 1 8-8h385.7a8 8 0 0 1 8 8v89.46a8 8 0 0 1-8 8h-385.7a8 8 0 0 1-8-8z" fill="none"/><path d="M869.36 40h301.28v140.6H869.36z" stroke="#3a414a" stroke-width="3" fill="#fff"/><use xlink:href="#b" transform="matrix(1,0,0,1,869.3571428571429,40) translate(117.55499999999999 76.0875)"/><path d="M394.24 183.6v5.93m0 11.84v11.83m0 11.84v11.84m0 11.84v11.84m0 11.84v11.84m0 11.84v11.84m0 11.84v11.84m0 11.84v11.84m0 11.84v11.84m0 11.84v11.83m0 11.84v11.84m0 11.85V450m0 11.83v11.84m0 11.84v11.85m0 11.84v11.83m0 11.84v11.84m0 11.85v11.84m0 11.83v11.83m0 11.84v11.84m0 11.84v11.84m0 11.84v11.84m0 11.84v11.84m0 11.84v11.84m0 11.84v11.84m0 11.84v11.84m0 11.83v11.84m0 11.83v5.92l-.02.28-.07.28-.1.27-.15.24-.18.23-.22.18-.24.16-.26.1-.28.07-.28.02-.28.03-.27.06-.27.1-.25.16-.2.18-.2.2-.14.26-.1.26-.07.27-.03.28v5.92m0 11.84v11.85m0 11.84v11.83m0 11.84v11.84m0 11.85v11.84m0 11.83v11.84m0 11.84v11.85m0 11.83v11.84m0 11.84v11.84m0 11.84v11.84m0 11.84v11.84m0 11.84v11.84m0 11.84v11.84m0 11.84v11.84m0 11.84v11.84m0 11.83v11.85m0 11.84v11.83m0 11.84v11.84m0 11.85V1235m0 11.83v11.84m0 11.84v11.85m0 11.84v11.83m0 11.84v11.84m0 11.84v11.84m0 11.84v11.84m0 11.84v11.84m0 11.84v5.92" stroke="#3a414a" stroke-width="3" fill="none"/><path d="M395.74 183.65h-3v-1.54h3z" stroke="#3a414a" stroke-width=".05" fill="#3a414a"/><path d="M390.64 1418.46v1.54M1016.6 183.6v5.94m0 11.86v11.87m0 11.86V237m0 11.86v11.86m0 11.87v11.85m0 11.87v11.86m0 11.86v11.87m0 11.87v11.87m0 11.86v11.86m0 11.87v11.86m0 11.86v11.86m0 11.86v11.87m0 11.86v11.88m0 11.86V498m0 11.87v11.86m0 11.87v11.86m0 11.87v11.86m0 11.85v11.87m0 11.86v11.87m0 11.86v11.87m0 11.87v11.86m0 11.87v11.86m0 11.87v11.86m0 11.86v11.87m0 11.85v11.87m0 11.86v11.86m0 11.87V806.48m0 11.87v11.86m0 11.86v11.87m0 11.86v11.86m0 11.86v11.86m0 11.87v11.86m0 11.88v11.86m0 11.87v11.87m0 11.86v11.87m0 11.86v11.87m0 11.86v11.85m0 11.87v11.86m0 11.87v11.86m0 11.87v11.87m0 11.86v11.87m0 11.86v11.86m0 11.86v11.86m0 11.87v11.85m0 11.87v11.86m0 11.86v11.87m0 11.87v11.87m0 11.86v11.86m0 11.87v11.86m0 11.86v11.86m0 11.86v11.87m0 11.86v11.88m0 11.86v5.93" stroke="#3a414a" stroke-width="3" fill="none"/><path d="M1018.1 183.65h-3v-1.54h3z" stroke="#3a414a" stroke-width=".05" fill="#3a414a"/><path d="M1016.6 1417.43v1.54" stroke="#3a414a" stroke-width="3" fill="none"/><path d="M374.24 220h40v1140h-40zM1000 220h40v1140h-40z" stroke="#3a414a" stroke-width="3" fill="#fff"/><path d="M60 428a8 8 0 0 1 8-8h84a8 8 0 0 1 8 8v4.93a17.07 17.07 0 0 1-5 12.07 17.07 17.07 0 0 1-12.07 5H68a8 8 0 0 1-8-8z" fill="#fff"/><path d="M160 420v20l-10 10H60" stroke="#3a414a" stroke-width="2" fill="none"/><path d="M60 428a8 8 0 0 1 8-8h1184a8 8 0 0 1 8 8v724a8 8 0 0 1-8 8H68a8 8 0 0 1-8-8z" stroke="#3a414a" stroke-width="2" fill="none"/><use xlink:href="#c" transform="matrix(1,0,0,1,68,420) translate(21 18.6)"/><use xlink:href="#d" transform="matrix(1,0,0,1,72,458) translate(11.574999999999989 18.6)"/><use xlink:href="#e" transform="matrix(1,0,0,1,72,458) translate(65.52499999999999 18.6)"/><use xlink:href="#f" transform="matrix(1,0,0,1,72,458) translate(83.475 18.6)"/><use xlink:href="#g" transform="matrix(1,0,0,1,72,458) translate(113.475 18.6)"/><path d="M997.5 478H434.25" stroke="#3a414a" stroke-width="2" fill="none"/><path d="M998.5 479h-1.03v-2h1.03z" stroke="#3a414a" stroke-width=".05" fill="#3a414a"/><path d="M418.98 478l14.27-4.63v9.26z" stroke="#3a414a" stroke-width="2" fill="#3a414a"/><path d="M500 456.38a8 8 0 0 1 8-8h378.85a8 8 0 0 1 8 8v17.3a8 8 0 0 1-8 8H508a8 8 0 0 1-8-8z" fill="none"/><use xlink:href="#h" transform="matrix(1,0,0,1,500,448.3837350766039) translate(111.03703703703702 20.733333333333334)"/><path d="M997.5 802.73H434.25" stroke="#3a414a" stroke-width="2" fill="none"/><path d="M998.5 803.73h-1.03v-2h1.03z" stroke="#3a414a" stroke-width=".05" fill="#3a414a"/><path d="M418.98 802.73l14.26-4.63v9.27z" stroke="#3a414a" stroke-width="2" fill="#3a414a"/><path d="M500 781.77a8 8 0 0 1 8-8h378.85a8 8 0 0 1 8 8v9.5a8 8 0 0 1-8 8H508a8 8 0 0 1-8-8z" fill="none"/><use xlink:href="#i" transform="matrix(1,0,0,1,500,773.7739463601532) translate(103.80370370370368 16.733333333333334)"/><path d="M997.5 1016.07H434.25" stroke="#3a414a" stroke-width="2" fill="none"/><path d="M998.5 1017.07h-1.03v-2h1.03z" stroke="#3a414a" stroke-width=".05" fill="#3a414a"/><path d="M418.98 1016.07l14.27-4.63v9.27z" stroke="#3a414a" stroke-width="2" fill="#3a414a"/><path d="M500 992a8 8 0 0 1 8-8h378.85a8 8 0 0 1 8 8v17.3a8 8 0 0 1-8 8H508a8 8 0 0 1-8-8z" fill="none"/><use xlink:href="#j" transform="matrix(1,0,0,1,500,984) translate(94.57407407407406 20.733333333333334)"/><path d="M260 703.3a8 8 0 0 1 8-8h84a8 8 0 0 1 8 8v4.94a17.07 17.07 0 0 1-5 12.07 17.07 17.07 0 0 1-12.07 5H268a8 8 0 0 1-8-8z" fill="#fff"/><path d="M360 695.3v20l-10 10h-90" stroke="#000" fill="none"/><path d="M260 703.3a8 8 0 0 1 8-8h804a8 8 0 0 1 8 8V1032a8 8 0 0 1-8 8H268a8 8 0 0 1-8-8zM260 958.6h20m15 0h20m15 0h20m15 0h20m15 0h20m15 0h20m15 0h20m15 0h20m15 0h20m15 0h20m15 0h20m15 0h20m15 0h20m15 0h20m15 0h20m15 0h20m15 0h20m15 0h20m15 0h20m15 0h20m15 0h20m15 0h20m15 0h20m15 0h15" stroke="#000" fill="none"/><use xlink:href="#k" transform="matrix(1,0,0,1,268.00000000000006,695.3100332554819) translate(-1.4249999999999972 18.6)"/><use xlink:href="#l" transform="matrix(1,0,0,1,272.00000000000006,733.3100332554819) translate(0 18.733333333333334)"/><use xlink:href="#m" transform="matrix(1,0,0,1,272.00000000000006,733.3100332554819) translate(180 18.733333333333334)"/><use xlink:href="#n" transform="matrix(1,0,0,1,272.00000000000006,733.3100332554819) translate(193.95 18.733333333333334)"/><use xlink:href="#l" transform="matrix(1,0,0,1,272.00000000000006,966.6148689631) translate(7.525000000000006 18.6)"/><use xlink:href="#o" transform="matrix(1,0,0,1,272.00000000000006,966.6148689631) translate(187.525 18.6)"/><path d="M500 838.27a8 8 0 0 1 8-8h422.5a8 8 0 0 1 8 8v17.3a8 8 0 0 1-8 8H508a8 8 0 0 1-8-8z" fill="none"/><use xlink:href="#p" transform="matrix(1,0,0,1,500,830.2732923651538) translate(12.792592592592598 20.733333333333334)"/><use xlink:href="#q" transform="matrix(1,0,0,1,500,830.2732923651538) translate(309.2814814814815 20.733333333333334)"/><path d="M997.5 861.4H434.25" stroke="#3a414a" stroke-width="2" fill="none"/><path d="M998.5 862.4h-1.03v-2h1.03z" stroke="#3a414a" stroke-width=".05" fill="#3a414a"/><path d="M418.98 861.4l14.27-4.64v9.27z" stroke="#3a414a" stroke-width="2" fill="#3a414a"/><path d="M579 895.58a8 8 0 0 1 8-8h240.25a8 8 0 0 1 8 8v17.28a8 8 0 0 1-8 8H587a8 8 0 0 1-8-8z" fill="none"/><use xlink:href="#r" transform="matrix(1,0,0,1,578.9904761904761,887.5762113425911) translate(8.359259259259247 20.733333333333334)"/><use xlink:href="#s" transform="matrix(1,0,0,1,578.9904761904761,887.5762113425911) translate(176.2037037037037 20.733333333333334)"/><path d="M997.5 916.64H434.25" stroke="#3a414a" stroke-width="2" fill="none"/><path d="M998.5 917.64h-1.03v-2h1.03z" stroke="#3a414a" stroke-width=".05" fill="#3a414a"/><path d="M418.98 916.64l14.26-4.64v9.27z" stroke="#3a414a" stroke-width="2" fill="#3a414a"/><path d="M579 1195a8 8 0 0 1 8-8h240.25a8 8 0 0 1 8 8v17.3a8 8 0 0 1-8 8H587a8 8 0 0 1-8-8z" fill="none"/><use xlink:href="#t" transform="matrix(1,0,0,1,578.9904761904761,1187) translate(81.39259259259259 20.733333333333334)"/><path d="M997.5 1274.7H434.25" stroke="#3a414a" stroke-width="2" fill="none"/><path d="M998.5 1275.7h-1.03v-2h1.03z" stroke="#3a414a" stroke-width=".05" fill="#3a414a"/><path d="M418.98 1274.7l14.26-4.63v9.28z" stroke="#3a414a" stroke-width="2" fill="#3a414a"/><path d="M511.2 1248a8 8 0 0 1 8-8h378.85a8 8 0 0 1 8 8v17.3a8 8 0 0 1-8 8H519.2a8 8 0 0 1-8-8z" fill="none"/><use xlink:href="#u" transform="matrix(1,0,0,1,511.1952380952382,1240) translate(90.8148148148148 20.733333333333334)"/><use xlink:href="#v" transform="matrix(1,0,0,1,511.1952380952382,1240) translate(171.60000000000002 20.733333333333334)"/><path d="M997.5 1113.9H434.25" stroke="#3a414a" stroke-width="2" fill="none"/><path d="M998.5 1114.9h-1.03v-2h1.03z" stroke="#3a414a" stroke-width=".05" fill="#3a414a"/><path d="M418.98 1113.9l14.27-4.64v9.27z" stroke="#3a414a" stroke-width="2" fill="#3a414a"/><path d="M511.2 1088a8 8 0 0 1 8-8h378.85a8 8 0 0 1 8 8v17.3a8 8 0 0 1-8 8H519.2a8 8 0 0 1-8-8z" fill="none"/><use xlink:href="#u" transform="matrix(1,0,0,1,511.1952380952382,1080) translate(90.8148148148148 20.733333333333334)"/><use xlink:href="#v" transform="matrix(1,0,0,1,511.1952380952382,1080) translate(171.60000000000002 20.733333333333334)"/><path d="M997.5 1217.66H434.25" stroke="#3a414a" stroke-width="2" fill="none"/><path d="M998.5 1218.66h-1.03v-2h1.03z" stroke="#3a414a" stroke-width=".05" fill="#3a414a"/><path d="M418.98 1217.66l14.26-4.63v9.27z" stroke="#3a414a" stroke-width="2" fill="#3a414a"/><path d="M997.5 600H434.25" stroke="#3a414a" stroke-width="2" fill="none"/><path d="M998.5 601h-1.03v-2h1.03z" stroke="#3a414a" stroke-width=".05" fill="#3a414a"/><path d="M418.98 600l14.27-4.62v9.27z" stroke="#3a414a" stroke-width="2" fill="#3a414a"/><path d="M483.02 578.8a8 8 0 0 1 8-8h412.8a8 8 0 0 1 8 8v17.28a8 8 0 0 1-8 8h-412.8a8 8 0 0 1-8-8z" fill="none"/><use xlink:href="#w" transform="matrix(1,0,0,1,483.02380952380935,570.794578358868) translate(5.951851851851842 20.733333333333334)"/><use xlink:href="#x" transform="matrix(1,0,0,1,483.02380952380935,570.794578358868) translate(281.23333333333335 20.733333333333334)"/><path d="M997.5 540H434.25" stroke="#3a414a" stroke-width="2" fill="none"/><path d="M998.5 541h-1.03v-2h1.03z" stroke="#3a414a" stroke-width=".05" fill="#3a414a"/><path d="M418.98 540l14.26-4.63v9.26z" stroke="#3a414a" stroke-width="2" fill="#3a414a"/><path d="M491.6 517.6a8 8 0 0 1 8-8h378.84a8 8 0 0 1 8 8v17.28a8 8 0 0 1-8 8H499.6a8 8 0 0 1-8-8z" fill="none"/><use xlink:href="#u" transform="matrix(1,0,0,1,491.5904761904761,509.58915671773593) translate(90.8148148148148 20.733333333333334)"/><use xlink:href="#v" transform="matrix(1,0,0,1,491.5904761904761,509.58915671773593) translate(171.60000000000002 20.733333333333334)"/><path d="M997.5 661.07H434.25" stroke="#3a414a" stroke-width="2" fill="none"/><path d="M998.5 662.07h-1.03v-2h1.03z" stroke="#3a414a" stroke-width=".05" fill="#3a414a"/><path d="M418.98 661.07l14.26-4.64v9.27z" stroke="#3a414a" stroke-width="2" fill="#3a414a"/><path d="M500 639.05a8 8 0 0 1 8-8h378.85a8 8 0 0 1 8 8v17.3a8 8 0 0 1-8 8H508a8 8 0 0 1-8-8z" fill="none"/><g><use xlink:href="#u" transform="matrix(1,0,0,1,500,631.0523058071749) translate(90.8148148148148 20.733333333333334)"/><use xlink:href="#v" transform="matrix(1,0,0,1,500,631.0523058071749) translate(171.60000000000002 20.733333333333334)"/></g><path d="M997.5 393.14H434.25" stroke="#3a414a" stroke-width="2" fill="none"/><path d="M998.5 394.14h-1.03v-2h1.03z" stroke="#3a414a" stroke-width=".05" fill="#3a414a"/><path d="M418.98 393.14l14.27-4.64v9.27z" stroke="#3a414a" stroke-width="2" fill="#3a414a"/><path d="M491.6 374.4a8 8 0 0 1 8-8h378.84a8 8 0 0 1 8 8v17.3a8 8 0 0 1-8 8H499.6a8 8 0 0 1-8-8z" fill="none"/><g><use xlink:href="#u" transform="matrix(1,0,0,1,491.5904761904761,366.4108432822641) translate(90.8148148148148 20.733333333333334)"/><use xlink:href="#v" transform="matrix(1,0,0,1,491.5904761904761,366.4108432822641) translate(171.60000000000002 20.733333333333334)"/></g><path d="M542.1 214.84a8 8 0 0 1 8-8h317.04a8 8 0 0 1 8 8V332.6a8 8 0 0 1-8 8H550.1a8 8 0 0 1-8-8z" fill-opacity="0"/><path d="M542.6 214.84c0 .28-.23.5-.5.5-.28 0-.5-.22-.5-.5 0-.27.22-.5.5-.5.27 0 .5.23.5.5zm.3-2.06c0 .27-.23.5-.5.5-.28 0-.5-.23-.5-.5 0-.28.22-.5.5-.5.27 0 .5.22.5.5zm.8-1.93c0 .28-.24.5-.5.5-.3 0-.5-.22-.5-.5 0-.27.2-.5.5-.5.26 0 .5.23.5.5zm1.24-1.66c0 .26-.22.5-.5.5s-.5-.24-.5-.5c0-.3.22-.5.5-.5s.5.2.5.5zm1.67-1.27c0 .28-.22.5-.5.5-.27 0-.5-.22-.5-.5 0-.27.23-.5.5-.5.28 0 .5.23.5.5zm1.93-.8c0 .28-.22.5-.5.5-.27 0-.5-.22-.5-.5 0-.27.23-.5.5-.5.28 0 .5.23.5.5zm2.07-.3c0 .3-.23.5-.5.5-.28 0-.5-.2-.5-.5 0-.26.22-.5.5-.5.27 0 .5.24.5.5zm2 0c0 .3-.23.5-.5.5-.28 0-.5-.2-.5-.5 0-.26.22-.5.5-.5.27 0 .5.24.5.5zm2 0c0 .3-.24.5-.5.5-.3 0-.5-.2-.5-.5 0-.26.2-.5.5-.5.26 0 .5.24.5.5zm1.98 0c0 .3-.22.5-.5.5s-.5-.2-.5-.5c0-.26.22-.5.5-.5s.5.24.5.5zm2 0c0 .3-.23.5-.5.5-.28 0-.5-.2-.5-.5 0-.26.22-.5.5-.5.27 0 .5.24.5.5zm2 0c0 .3-.24.5-.5.5-.3 0-.5-.2-.5-.5 0-.26.2-.5.5-.5.26 0 .5.24.5.5zm1.98 0c0 .3-.22.5-.5.5-.27 0-.5-.2-.5-.5 0-.26.23-.5.5-.5.28 0 .5.24.5.5zm2 0c0 .3-.23.5-.5.5-.28 0-.5-.2-.5-.5 0-.26.22-.5.5-.5.27 0 .5.24.5.5zm2 0c0 .3-.23.5-.5.5-.3 0-.5-.2-.5-.5 0-.26.2-.5.5-.5.27 0 .5.24.5.5zm1.98 0c0 .3-.22.5-.5.5-.27 0-.5-.2-.5-.5 0-.26.23-.5.5-.5.28 0 .5.24.5.5zm2 0c0 .3-.23.5-.5.5-.28 0-.5-.2-.5-.5 0-.26.22-.5.5-.5.27 0 .5.24.5.5zm2 0c0 .3-.23.5-.5.5-.28 0-.5-.2-.5-.5 0-.26.22-.5.5-.5.27 0 .5.24.5.5zm2 0c0 .3-.24.5-.5.5-.3 0-.5-.2-.5-.5 0-.26.2-.5.5-.5.26 0 .5.24.5.5zm1.98 0c0 .3-.22.5-.5.5s-.5-.2-.5-.5c0-.26.22-.5.5-.5s.5.24.5.5zm2 0c0 .3-.23.5-.5.5-.28 0-.5-.2-.5-.5 0-.26.22-.5.5-.5.27 0 .5.24.5.5zm2 0c0 .3-.24.5-.5.5-.3 0-.5-.2-.5-.5 0-.26.2-.5.5-.5.26 0 .5.24.5.5zm1.98 0c0 .3-.22.5-.5.5-.27 0-.5-.2-.5-.5 0-.26.23-.5.5-.5.28 0 .5.24.5.5zm2 0c0 .3-.23.5-.5.5-.28 0-.5-.2-.5-.5 0-.26.22-.5.5-.5.27 0 .5.24.5.5zm2 0c0 .3-.23.5-.5.5-.3 0-.5-.2-.5-.5 0-.26.2-.5.5-.5.27 0 .5.24.5.5zm1.98 0c0 .3-.22.5-.5.5-.27 0-.5-.2-.5-.5 0-.26.23-.5.5-.5.28 0 .5.24.5.5zm2 0c0 .3-.23.5-.5.5-.28 0-.5-.2-.5-.5 0-.26.22-.5.5-.5.27 0 .5.24.5.5zm2 0c0 .3-.23.5-.5.5-.28 0-.5-.2-.5-.5 0-.26.22-.5.5-.5.27 0 .5.24.5.5zm2 0c0 .3-.24.5-.5.5-.3 0-.5-.2-.5-.5 0-.26.2-.5.5-.5.26 0 .5.24.5.5zm1.98 0c0 .3-.22.5-.5.5s-.5-.2-.5-.5c0-.26.22-.5.5-.5s.5.24.5.5zm2 0c0 .3-.23.5-.5.5-.28 0-.5-.2-.5-.5 0-.26.22-.5.5-.5.27 0 .5.24.5.5zm2 0c0 .3-.24.5-.5.5-.3 0-.5-.2-.5-.5 0-.26.2-.5.5-.5.26 0 .5.24.5.5zm1.98 0c0 .3-.22.5-.5.5-.27 0-.5-.2-.5-.5 0-.26.23-.5.5-.5.28 0 .5.24.5.5zm2 0c0 .3-.23.5-.5.5-.28 0-.5-.2-.5-.5 0-.26.22-.5.5-.5.27 0 .5.24.5.5zm2 0c0 .3-.23.5-.5.5-.3 0-.5-.2-.5-.5 0-.26.2-.5.5-.5.27 0 .5.24.5.5zm1.98 0c0 .3-.22.5-.5.5-.27 0-.5-.2-.5-.5 0-.26.23-.5.5-.5.28 0 .5.24.5.5zm2 0c0 .3-.23.5-.5.5-.28 0-.5-.2-.5-.5 0-.26.22-.5.5-.5.27 0 .5.24.5.5zm2 0c0 .3-.23.5-.5.5-.28 0-.5-.2-.5-.5 0-.26.22-.5.5-.5.27 0 .5.24.5.5zm2 0c0 .3-.24.5-.5.5-.3 0-.5-.2-.5-.5 0-.26.2-.5.5-.5.26 0 .5.24.5.5zm1.98 0c0 .3-.22.5-.5.5s-.5-.2-.5-.5c0-.26.22-.5.5-.5s.5.24.5.5zm2 0c0 .3-.23.5-.5.5-.28 0-.5-.2-.5-.5 0-.26.22-.5.5-.5.27 0 .5.24.5.5zm2 0c0 .3-.24.5-.5.5-.3 0-.5-.2-.5-.5 0-.26.2-.5.5-.5.26 0 .5.24.5.5zm1.98 0c0 .3-.22.5-.5.5-.27 0-.5-.2-.5-.5 0-.26.23-.5.5-.5.28 0 .5.24.5.5zm2 0c0 .3-.23.5-.5.5-.28 0-.5-.2-.5-.5 0-.26.22-.5.5-.5.27 0 .5.24.5.5zm2 0c0 .3-.23.5-.5.5-.3 0-.5-.2-.5-.5 0-.26.2-.5.5-.5.27 0 .5.24.5.5zm1.98 0c0 .3-.22.5-.5.5-.27 0-.5-.2-.5-.5 0-.26.23-.5.5-.5.28 0 .5.24.5.5zm2 0c0 .3-.23.5-.5.5-.28 0-.5-.2-.5-.5 0-.26.22-.5.5-.5.27 0 .5.24.5.5zm2 0c0 .3-.23.5-.5.5-.28 0-.5-.2-.5-.5 0-.26.22-.5.5-.5.27 0 .5.24.5.5zm2 0c0 .3-.24.5-.5.5-.3 0-.5-.2-.5-.5 0-.26.2-.5.5-.5.26 0 .5.24.5.5zm1.98 0c0 .3-.22.5-.5.5s-.5-.2-.5-.5c0-.26.22-.5.5-.5s.5.24.5.5zm2 0c0 .3-.23.5-.5.5-.28 0-.5-.2-.5-.5 0-.26.22-.5.5-.5.27 0 .5.24.5.5zm2 0c0 .3-.24.5-.5.5-.3 0-.5-.2-.5-.5 0-.26.2-.5.5-.5.26 0 .5.24.5.5zm1.98 0c0 .3-.22.5-.5.5-.27 0-.5-.2-.5-.5 0-.26.23-.5.5-.5.28 0 .5.24.5.5zm2 0c0 .3-.23.5-.5.5-.28 0-.5-.2-.5-.5 0-.26.22-.5.5-.5.27 0 .5.24.5.5zm2 0c0 .3-.23.5-.5.5-.3 0-.5-.2-.5-.5 0-.26.2-.5.5-.5.27 0 .5.24.5.5zm1.98 0c0 .3-.22.5-.5.5-.27 0-.5-.2-.5-.5 0-.26.23-.5.5-.5.28 0 .5.24.5.5zm2 0c0 .3-.23.5-.5.5-.28 0-.5-.2-.5-.5 0-.26.22-.5.5-.5.27 0 .5.24.5.5zm2 0c0 .3-.23.5-.5.5-.28 0-.5-.2-.5-.5 0-.26.22-.5.5-.5.27 0 .5.24.5.5zm2 0c0 .3-.24.5-.5.5-.3 0-.5-.2-.5-.5 0-.26.2-.5.5-.5.26 0 .5.24.5.5zm1.98 0c0 .3-.22.5-.5.5s-.5-.2-.5-.5c0-.26.22-.5.5-.5s.5.24.5.5zm2 0c0 .3-.23.5-.5.5-.28 0-.5-.2-.5-.5 0-.26.22-.5.5-.5.27 0 .5.24.5.5zm2 0c0 .3-.24.5-.5.5-.3 0-.5-.2-.5-.5 0-.26.2-.5.5-.5.26 0 .5.24.5.5zm1.98 0c0 .3-.22.5-.5.5-.27 0-.5-.2-.5-.5 0-.26.23-.5.5-.5.28 0 .5.24.5.5zm2 0c0 .3-.23.5-.5.5-.28 0-.5-.2-.5-.5 0-.26.22-.5.5-.5.27 0 .5.24.5.5zm2 0c0 .3-.23.5-.5.5-.3 0-.5-.2-.5-.5 0-.26.2-.5.5-.5.27 0 .5.24.5.5zm1.98 0c0 .3-.22.5-.5.5-.27 0-.5-.2-.5-.5 0-.26.23-.5.5-.5.28 0 .5.24.5.5zm2 0c0 .3-.23.5-.5.5-.28 0-.5-.2-.5-.5 0-.26.22-.5.5-.5.27 0 .5.24.5.5zm2 0c0 .3-.23.5-.5.5-.28 0-.5-.2-.5-.5 0-.26.22-.5.5-.5.27 0 .5.24.5.5zm2 0c0 .3-.24.5-.5.5-.3 0-.5-.2-.5-.5 0-.26.2-.5.5-.5.26 0 .5.24.5.5zm1.98 0c0 .3-.22.5-.5.5s-.5-.2-.5-.5c0-.26.22-.5.5-.5s.5.24.5.5zm2 0c0 .3-.23.5-.5.5-.28 0-.5-.2-.5-.5 0-.26.22-.5.5-.5.27 0 .5.24.5.5zm2 0c0 .3-.24.5-.5.5-.3 0-.5-.2-.5-.5 0-.26.2-.5.5-.5.26 0 .5.24.5.5zm1.98 0c0 .3-.22.5-.5.5-.27 0-.5-.2-.5-.5 0-.26.23-.5.5-.5.28 0 .5.24.5.5zm2 0c0 .3-.23.5-.5.5-.28 0-.5-.2-.5-.5 0-.26.22-.5.5-.5.27 0 .5.24.5.5zm2 0c0 .3-.23.5-.5.5-.3 0-.5-.2-.5-.5 0-.26.2-.5.5-.5.27 0 .5.24.5.5zm1.98 0c0 .3-.22.5-.5.5-.27 0-.5-.2-.5-.5 0-.26.23-.5.5-.5.28 0 .5.24.5.5zm2 0c0 .3-.23.5-.5.5-.28 0-.5-.2-.5-.5 0-.26.22-.5.5-.5.27 0 .5.24.5.5zm2 0c0 .3-.23.5-.5.5-.28 0-.5-.2-.5-.5 0-.26.22-.5.5-.5.27 0 .5.24.5.5zm2 0c0 .3-.24.5-.5.5-.3 0-.5-.2-.5-.5 0-.26.2-.5.5-.5.26 0 .5.24.5.5zm1.98 0c0 .3-.22.5-.5.5s-.5-.2-.5-.5c0-.26.22-.5.5-.5s.5.24.5.5zm2 0c0 .3-.23.5-.5.5-.28 0-.5-.2-.5-.5 0-.26.22-.5.5-.5.27 0 .5.24.5.5zm2 0c0 .3-.24.5-.5.5-.3 0-.5-.2-.5-.5 0-.26.2-.5.5-.5.26 0 .5.24.5.5zm1.98 0c0 .3-.22.5-.5.5-.27 0-.5-.2-.5-.5 0-.26.23-.5.5-.5.28 0 .5.24.5.5zm2 0c0 .3-.23.5-.5.5-.28 0-.5-.2-.5-.5 0-.26.22-.5.5-.5.27 0 .5.24.5.5zm2 0c0 .3-.23.5-.5.5-.3 0-.5-.2-.5-.5 0-.26.2-.5.5-.5.27 0 .5.24.5.5zm1.98 0c0 .3-.22.5-.5.5-.27 0-.5-.2-.5-.5 0-.26.23-.5.5-.5.28 0 .5.24.5.5zm2 0c0 .3-.23.5-.5.5-.28 0-.5-.2-.5-.5 0-.26.22-.5.5-.5.27 0 .5.24.5.5zm2 0c0 .3-.23.5-.5.5-.28 0-.5-.2-.5-.5 0-.26.22-.5.5-.5.27 0 .5.24.5.5zm2 0c0 .3-.24.5-.5.5-.3 0-.5-.2-.5-.5 0-.26.2-.5.5-.5.26 0 .5.24.5.5zm1.98 0c0 .3-.22.5-.5.5s-.5-.2-.5-.5c0-.26.22-.5.5-.5s.5.24.5.5zm2 0c0 .3-.23.5-.5.5-.28 0-.5-.2-.5-.5 0-.26.22-.5.5-.5.27 0 .5.24.5.5zm2 0c0 .3-.24.5-.5.5-.3 0-.5-.2-.5-.5 0-.26.2-.5.5-.5.26 0 .5.24.5.5zm1.98 0c0 .3-.22.5-.5.5-.27 0-.5-.2-.5-.5 0-.26.23-.5.5-.5.28 0 .5.24.5.5zm2 0c0 .3-.23.5-.5.5-.28 0-.5-.2-.5-.5 0-.26.22-.5.5-.5.27 0 .5.24.5.5zm2 0c0 .3-.23.5-.5.5-.3 0-.5-.2-.5-.5 0-.26.2-.5.5-.5.27 0 .5.24.5.5zm2 0c0 .3-.24.5-.5.5-.3 0-.5-.2-.5-.5 0-.26.2-.5.5-.5.26 0 .5.24.5.5zm1.98 0c0 .3-.22.5-.5.5s-.5-.2-.5-.5c0-.26.22-.5.5-.5s.5.24.5.5zm2 0c0 .3-.23.5-.5.5-.28 0-.5-.2-.5-.5 0-.26.22-.5.5-.5.27 0 .5.24.5.5zm2 0c0 .3-.24.5-.5.5-.3 0-.5-.2-.5-.5 0-.26.2-.5.5-.5.26 0 .5.24.5.5zm1.98 0c0 .3-.22.5-.5.5s-.5-.2-.5-.5c0-.26.22-.5.5-.5s.5.24.5.5zm2 0c0 .3-.23.5-.5.5-.28 0-.5-.2-.5-.5 0-.26.22-.5.5-.5.27 0 .5.24.5.5zm2 0c0 .3-.24.5-.5.5-.3 0-.5-.2-.5-.5 0-.26.2-.5.5-.5.26 0 .5.24.5.5zm1.98 0c0 .3-.22.5-.5.5-.27 0-.5-.2-.5-.5 0-.26.23-.5.5-.5.28 0 .5.24.5.5zm2 0c0 .3-.23.5-.5.5-.28 0-.5-.2-.5-.5 0-.26.22-.5.5-.5.27 0 .5.24.5.5zm2 0c0 .3-.23.5-.5.5-.3 0-.5-.2-.5-.5 0-.26.2-.5.5-.5.27 0 .5.24.5.5zm2 0c0 .3-.24.5-.5.5-.3 0-.5-.2-.5-.5 0-.26.2-.5.5-.5.26 0 .5.24.5.5zm1.98 0c0 .3-.23.5-.5.5-.28 0-.5-.2-.5-.5 0-.26.22-.5.5-.5.27 0 .5.24.5.5zm2 0c0 .3-.23.5-.5.5-.28 0-.5-.2-.5-.5 0-.26.22-.5.5-.5.27 0 .5.24.5.5zm2 0c0 .3-.24.5-.5.5-.3 0-.5-.2-.5-.5 0-.26.2-.5.5-.5.26 0 .5.24.5.5zm1.98 0c0 .3-.22.5-.5.5-.27 0-.5-.2-.5-.5 0-.26.23-.5.5-.5.28 0 .5.24.5.5zm2 0c0 .3-.23.5-.5.5-.28 0-.5-.2-.5-.5 0-.26.22-.5.5-.5.27 0 .5.24.5.5zm2 0c0 .3-.24.5-.5.5-.3 0-.5-.2-.5-.5 0-.26.2-.5.5-.5.26 0 .5.24.5.5zm1.98 0c0 .3-.22.5-.5.5-.27 0-.5-.2-.5-.5 0-.26.23-.5.5-.5.28 0 .5.24.5.5zm2 0c0 .3-.23.5-.5.5-.28 0-.5-.2-.5-.5 0-.26.22-.5.5-.5.27 0 .5.24.5.5zm2 0c0 .3-.23.5-.5.5-.3 0-.5-.2-.5-.5 0-.26.2-.5.5-.5.27 0 .5.24.5.5zm2 0c0 .3-.24.5-.5.5-.3 0-.5-.2-.5-.5 0-.26.2-.5.5-.5.26 0 .5.24.5.5zm1.98 0c0 .3-.23.5-.5.5-.28 0-.5-.2-.5-.5 0-.26.22-.5.5-.5.27 0 .5.24.5.5zm2 0c0 .3-.23.5-.5.5-.28 0-.5-.2-.5-.5 0-.26.22-.5.5-.5.27 0 .5.24.5.5zm2 0c0 .3-.24.5-.5.5-.3 0-.5-.2-.5-.5 0-.26.2-.5.5-.5.26 0 .5.24.5.5zm1.98 0c0 .3-.22.5-.5.5-.27 0-.5-.2-.5-.5 0-.26.23-.5.5-.5.28 0 .5.24.5.5zm2 0c0 .3-.23.5-.5.5-.28 0-.5-.2-.5-.5 0-.26.22-.5.5-.5.27 0 .5.24.5.5zm2 0c0 .3-.24.5-.5.5-.3 0-.5-.2-.5-.5 0-.26.2-.5.5-.5.26 0 .5.24.5.5zm1.98 0c0 .3-.22.5-.5.5-.27 0-.5-.2-.5-.5 0-.26.23-.5.5-.5.28 0 .5.24.5.5zm2 0c0 .3-.23.5-.5.5-.28 0-.5-.2-.5-.5 0-.26.22-.5.5-.5.27 0 .5.24.5.5zm2 0c0 .3-.23.5-.5.5-.28 0-.5-.2-.5-.5 0-.26.22-.5.5-.5.27 0 .5.24.5.5zm2 0c0 .3-.24.5-.5.5-.3 0-.5-.2-.5-.5 0-.26.2-.5.5-.5.26 0 .5.24.5.5zm1.98 0c0 .3-.23.5-.5.5-.28 0-.5-.2-.5-.5 0-.26.22-.5.5-.5.27 0 .5.24.5.5zm2 0c0 .3-.23.5-.5.5-.28 0-.5-.2-.5-.5 0-.26.22-.5.5-.5.27 0 .5.24.5.5zm2 0c0 .3-.24.5-.5.5-.3 0-.5-.2-.5-.5 0-.26.2-.5.5-.5.26 0 .5.24.5.5zm1.98 0c0 .3-.22.5-.5.5-.27 0-.5-.2-.5-.5 0-.26.23-.5.5-.5.28 0 .5.24.5.5zm2 0c0 .3-.23.5-.5.5-.28 0-.5-.2-.5-.5 0-.26.22-.5.5-.5.27 0 .5.24.5.5zm2 0c0 .3-.24.5-.5.5-.3 0-.5-.2-.5-.5 0-.26.2-.5.5-.5.26 0 .5.24.5.5zm1.98 0c0 .3-.22.5-.5.5-.27 0-.5-.2-.5-.5 0-.26.23-.5.5-.5.28 0 .5.24.5.5zm2 0c0 .3-.23.5-.5.5-.28 0-.5-.2-.5-.5 0-.26.22-.5.5-.5.27 0 .5.24.5.5zm2 0c0 .3-.23.5-.5.5-.3 0-.5-.2-.5-.5 0-.26.2-.5.5-.5.27 0 .5.24.5.5zm2 0c0 .3-.24.5-.5.5-.3 0-.5-.2-.5-.5 0-.26.2-.5.5-.5.26 0 .5.24.5.5zm1.98 0c0 .3-.23.5-.5.5-.28 0-.5-.2-.5-.5 0-.26.22-.5.5-.5.27 0 .5.24.5.5zm2 0c0 .3-.23.5-.5.5-.28 0-.5-.2-.5-.5 0-.26.22-.5.5-.5.27 0 .5.24.5.5zm2 0c0 .3-.24.5-.5.5-.3 0-.5-.2-.5-.5 0-.26.2-.5.5-.5.26 0 .5.24.5.5zm1.98 0c0 .3-.22.5-.5.5-.27 0-.5-.2-.5-.5 0-.26.23-.5.5-.5.28 0 .5.24.5.5zm2 0c0 .3-.23.5-.5.5-.28 0-.5-.2-.5-.5 0-.26.22-.5.5-.5.27 0 .5.24.5.5zm2 0c0 .3-.23.5-.5.5-.3 0-.5-.2-.5-.5 0-.26.2-.5.5-.5.27 0 .5.24.5.5zm1.98 0c0 .3-.22.5-.5.5-.27 0-.5-.2-.5-.5 0-.26.23-.5.5-.5.28 0 .5.24.5.5zm2 0c0 .3-.23.5-.5.5-.28 0-.5-.2-.5-.5 0-.26.22-.5.5-.5.27 0 .5.24.5.5zm2 0c0 .3-.23.5-.5.5-.28 0-.5-.2-.5-.5 0-.26.22-.5.5-.5.27 0 .5.24.5.5zm2 0c0 .3-.24.5-.5.5-.3 0-.5-.2-.5-.5 0-.26.2-.5.5-.5.26 0 .5.24.5.5zm1.98 0c0 .3-.23.5-.5.5-.28 0-.5-.2-.5-.5 0-.26.22-.5.5-.5.27 0 .5.24.5.5zm2 0c0 .3-.23.5-.5.5-.28 0-.5-.2-.5-.5 0-.26.22-.5.5-.5.27 0 .5.24.5.5zm2 0c0 .3-.24.5-.5.5-.3 0-.5-.2-.5-.5 0-.26.2-.5.5-.5.26 0 .5.24.5.5zm1.98 0c0 .3-.22.5-.5.5-.27 0-.5-.2-.5-.5 0-.26.23-.5.5-.5.28 0 .5.24.5.5zm2 0c0 .3-.23.5-.5.5-.28 0-.5-.2-.5-.5 0-.26.22-.5.5-.5.27 0 .5.24.5.5zm2 0c0 .3-.24.5-.5.5-.3 0-.5-.2-.5-.5 0-.26.2-.5.5-.5.26 0 .5.24.5.5zm1.98 0c0 .3-.22.5-.5.5-.27 0-.5-.2-.5-.5 0-.26.23-.5.5-.5.28 0 .5.24.5.5zm2 0c0 .3-.23.5-.5.5-.28 0-.5-.2-.5-.5 0-.26.22-.5.5-.5.27 0 .5.24.5.5zm2 0c0 .3-.23.5-.5.5-.3 0-.5-.2-.5-.5 0-.26.2-.5.5-.5.27 0 .5.24.5.5zm2 0c0 .3-.24.5-.5.5-.3 0-.5-.2-.5-.5 0-.26.2-.5.5-.5.26 0 .5.24.5.5zm1.98 0c0 .3-.23.5-.5.5-.28 0-.5-.2-.5-.5 0-.26.22-.5.5-.5.27 0 .5.24.5.5zm2 0c0 .3-.23.5-.5.5-.28 0-.5-.2-.5-.5 0-.26.22-.5.5-.5.27 0 .5.24.5.5zm2 0c0 .3-.24.5-.5.5-.3 0-.5-.2-.5-.5 0-.26.2-.5.5-.5.26 0 .5.24.5.5zm1.98 0c0 .3-.22.5-.5.5-.27 0-.5-.2-.5-.5 0-.26.23-.5.5-.5.28 0 .5.24.5.5zm2 0c0 .3-.23.5-.5.5-.28 0-.5-.2-.5-.5 0-.26.22-.5.5-.5.27 0 .5.24.5.5zm2 0c0 .3-.23.5-.5.5-.3 0-.5-.2-.5-.5 0-.26.2-.5.5-.5.27 0 .5.24.5.5zm1.98 0c0 .3-.22.5-.5.5-.27 0-.5-.2-.5-.5 0-.26.23-.5.5-.5.28 0 .5.24.5.5zm2 0c0 .3-.23.5-.5.5-.28 0-.5-.2-.5-.5 0-.26.22-.5.5-.5.27 0 .5.24.5.5zm2 0c0 .3-.23.5-.5.5-.28 0-.5-.2-.5-.5 0-.26.22-.5.5-.5.27 0 .5.24.5.5zm2 0c0 .3-.24.5-.5.5-.3 0-.5-.2-.5-.5 0-.26.2-.5.5-.5.26 0 .5.24.5.5zm2.05.3c0 .28-.2.5-.5.5-.27 0-.5-.22-.5-.5 0-.27.23-.5.5-.5.3 0 .5.23.5.5zm1.93.8c0 .28-.22.5-.5.5-.27 0-.5-.22-.5-.5 0-.27.23-.5.5-.5.28 0 .5.23.5.5zm1.67 1.25c0 .28-.22.5-.5.5-.27 0-.5-.22-.5-.5 0-.27.23-.5.5-.5.28 0 .5.23.5.5zm1.25 1.67c0 .28-.22.5-.5.5-.27 0-.5-.22-.5-.5 0-.27.23-.5.5-.5.28 0 .5.23.5.5zm.8 1.93c0 .27-.22.5-.5.5-.27 0-.5-.23-.5-.5 0-.28.23-.5.5-.5.28 0 .5.22.5.5zm.3 2.06c0 .28-.23.5-.5.5-.28 0-.5-.22-.5-.5 0-.27.22-.5.5-.5.27 0 .5.23.5.5zm0 2c0 .27-.23.5-.5.5-.28 0-.5-.23-.5-.5 0-.28.22-.5.5-.5.27 0 .5.22.5.5zm0 2c0 .27-.23.5-.5.5-.28 0-.5-.23-.5-.5 0-.28.22-.5.5-.5.27 0 .5.22.5.5zm0 2c0 .27-.23.5-.5.5-.28 0-.5-.23-.5-.5 0-.3.22-.5.5-.5.27 0 .5.2.5.5zm0 2c0 .26-.23.5-.5.5-.28 0-.5-.24-.5-.5 0-.3.22-.5.5-.5.27 0 .5.2.5.5zm0 1.98c0 .28-.23.5-.5.5-.28 0-.5-.22-.5-.5 0-.27.22-.5.5-.5.27 0 .5.23.5.5zm0 2c0 .27-.23.5-.5.5-.28 0-.5-.23-.5-.5 0-.28.22-.5.5-.5.27 0 .5.22.5.5zm0 2c0 .27-.23.5-.5.5-.28 0-.5-.23-.5-.5 0-.28.22-.5.5-.5.27 0 .5.22.5.5zm0 2c0 .27-.23.5-.5.5-.28 0-.5-.23-.5-.5 0-.3.22-.5.5-.5.27 0 .5.2.5.5zm0 2c0 .26-.23.5-.5.5-.28 0-.5-.24-.5-.5 0-.3.22-.5.5-.5.27 0 .5.2.5.5zm0 1.98c0 .28-.23.5-.5.5-.28 0-.5-.22-.5-.5 0-.27.22-.5.5-.5.27 0 .5.23.5.5zm0 2c0 .27-.23.5-.5.5-.28 0-.5-.23-.5-.5 0-.28.22-.5.5-.5.27 0 .5.22.5.5zm0 2c0 .27-.23.5-.5.5-.28 0-.5-.23-.5-.5 0-.28.22-.5.5-.5.27 0 .5.22.5.5zm0 2c0 .27-.23.5-.5.5-.28 0-.5-.23-.5-.5 0-.3.22-.5.5-.5.27 0 .5.2.5.5zm0 2c0 .26-.23.5-.5.5-.28 0-.5-.24-.5-.5 0-.3.22-.5.5-.5.27 0 .5.2.5.5zm0 1.98c0 .28-.23.5-.5.5-.28 0-.5-.22-.5-.5 0-.27.22-.5.5-.5.27 0 .5.23.5.5zm0 2c0 .27-.23.5-.5.5-.28 0-.5-.23-.5-.5 0-.28.22-.5.5-.5.27 0 .5.22.5.5zm0 2c0 .27-.23.5-.5.5-.28 0-.5-.23-.5-.5 0-.28.22-.5.5-.5.27 0 .5.22.5.5zm0 2c0 .27-.23.5-.5.5-.28 0-.5-.23-.5-.5 0-.3.22-.5.5-.5.27 0 .5.2.5.5zm0 2c0 .26-.23.5-.5.5-.28 0-.5-.24-.5-.5 0-.3.22-.5.5-.5.27 0 .5.2.5.5zm0 1.98c0 .28-.23.5-.5.5-.28 0-.5-.22-.5-.5 0-.27.22-.5.5-.5.27 0 .5.23.5.5zm0 2c0 .27-.23.5-.5.5-.28 0-.5-.23-.5-.5 0-.28.22-.5.5-.5.27 0 .5.22.5.5zm0 2c0 .27-.23.5-.5.5-.28 0-.5-.23-.5-.5 0-.28.22-.5.5-.5.27 0 .5.22.5.5zm0 2c0 .27-.23.5-.5.5-.28 0-.5-.23-.5-.5 0-.3.22-.5.5-.5.27 0 .5.2.5.5zm0 2c0 .26-.23.5-.5.5-.28 0-.5-.24-.5-.5 0-.3.22-.5.5-.5.27 0 .5.2.5.5zm0 1.98c0 .28-.23.5-.5.5-.28 0-.5-.22-.5-.5 0-.27.22-.5.5-.5.27 0 .5.23.5.5zm0 2c0 .27-.23.5-.5.5-.28 0-.5-.23-.5-.5 0-.28.22-.5.5-.5.27 0 .5.22.5.5zm0 2c0 .27-.23.5-.5.5-.28 0-.5-.23-.5-.5 0-.28.22-.5.5-.5.27 0 .5.22.5.5zm0 2c0 .27-.23.5-.5.5-.28 0-.5-.23-.5-.5 0-.3.22-.5.5-.5.27 0 .5.2.5.5zm0 2c0 .26-.23.5-.5.5-.28 0-.5-.24-.5-.5 0-.3.22-.5.5-.5.27 0 .5.2.5.5zm0 1.98c0 .28-.23.5-.5.5-.28 0-.5-.22-.5-.5 0-.27.22-.5.5-.5.27 0 .5.23.5.5zm0 2c0 .27-.23.5-.5.5-.28 0-.5-.23-.5-.5 0-.28.22-.5.5-.5.27 0 .5.22.5.5zm0 2c0 .27-.23.5-.5.5-.28 0-.5-.23-.5-.5 0-.28.22-.5.5-.5.27 0 .5.22.5.5zm0 2c0 .27-.23.5-.5.5-.28 0-.5-.23-.5-.5 0-.3.22-.5.5-.5.27 0 .5.2.5.5zm0 2c0 .26-.23.5-.5.5-.28 0-.5-.24-.5-.5 0-.3.22-.5.5-.5.27 0 .5.2.5.5zm0 1.98c0 .28-.23.5-.5.5-.28 0-.5-.22-.5-.5 0-.27.22-.5.5-.5.27 0 .5.23.5.5zm0 2c0 .27-.23.5-.5.5-.28 0-.5-.23-.5-.5 0-.28.22-.5.5-.5.27 0 .5.22.5.5zm0 2c0 .27-.23.5-.5.5-.28 0-.5-.23-.5-.5 0-.28.22-.5.5-.5.27 0 .5.22.5.5zm0 2c0 .27-.23.5-.5.5-.28 0-.5-.23-.5-.5 0-.3.22-.5.5-.5.27 0 .5.2.5.5zm0 2c0 .26-.23.5-.5.5-.28 0-.5-.24-.5-.5 0-.3.22-.5.5-.5.27 0 .5.2.5.5zm0 1.98c0 .28-.23.5-.5.5-.28 0-.5-.22-.5-.5 0-.27.22-.5.5-.5.27 0 .5.23.5.5zm0 2c0 .27-.23.5-.5.5-.28 0-.5-.23-.5-.5 0-.28.22-.5.5-.5.27 0 .5.22.5.5zm0 2c0 .27-.23.5-.5.5-.28 0-.5-.23-.5-.5 0-.28.22-.5.5-.5.27 0 .5.22.5.5zm0 2c0 .27-.23.5-.5.5-.28 0-.5-.23-.5-.5 0-.3.22-.5.5-.5.27 0 .5.2.5.5zm0 2c0 .26-.23.5-.5.5-.28 0-.5-.24-.5-.5 0-.3.22-.5.5-.5.27 0 .5.2.5.5zm0 1.98c0 .28-.23.5-.5.5-.28 0-.5-.22-.5-.5 0-.27.22-.5.5-.5.27 0 .5.23.5.5zm0 2c0 .27-.23.5-.5.5-.28 0-.5-.23-.5-.5 0-.28.22-.5.5-.5.27 0 .5.22.5.5zm0 2c0 .27-.23.5-.5.5-.28 0-.5-.23-.5-.5 0-.28.22-.5.5-.5.27 0 .5.22.5.5zm0 2c0 .27-.23.5-.5.5-.28 0-.5-.23-.5-.5 0-.3.22-.5.5-.5.27 0 .5.2.5.5zm0 2c0 .26-.23.5-.5.5-.28 0-.5-.24-.5-.5 0-.3.22-.5.5-.5.27 0 .5.2.5.5zm0 1.98c0 .28-.23.5-.5.5-.28 0-.5-.22-.5-.5 0-.27.22-.5.5-.5.27 0 .5.23.5.5zm0 2c0 .27-.23.5-.5.5-.28 0-.5-.23-.5-.5 0-.28.22-.5.5-.5.27 0 .5.22.5.5zm0 2c0 .27-.23.5-.5.5-.28 0-.5-.23-.5-.5 0-.28.22-.5.5-.5.27 0 .5.22.5.5zm0 2c0 .27-.23.5-.5.5-.28 0-.5-.23-.5-.5 0-.3.22-.5.5-.5.27 0 .5.2.5.5zm0 2c0 .26-.23.5-.5.5-.28 0-.5-.24-.5-.5 0-.3.22-.5.5-.5.27 0 .5.2.5.5zm0 1.98c0 .28-.23.5-.5.5-.28 0-.5-.22-.5-.5 0-.27.22-.5.5-.5.27 0 .5.23.5.5zm0 2c0 .27-.23.5-.5.5-.28 0-.5-.23-.5-.5 0-.28.22-.5.5-.5.27 0 .5.22.5.5zm0 2c0 .27-.23.5-.5.5-.28 0-.5-.23-.5-.5 0-.28.22-.5.5-.5.27 0 .5.22.5.5zm0 2c0 .27-.23.5-.5.5-.28 0-.5-.23-.5-.5 0-.3.22-.5.5-.5.27 0 .5.2.5.5zm0 2c0 .26-.23.5-.5.5-.28 0-.5-.24-.5-.5 0-.3.22-.5.5-.5.27 0 .5.2.5.5zm-.3 2.05c0 .28-.22.5-.5.5-.27 0-.5-.22-.5-.5s.23-.5.5-.5c.28 0 .5.22.5.5zm-.8 1.93c0 .27-.22.5-.5.5-.27 0-.5-.23-.5-.5 0-.28.23-.5.5-.5.28 0 .5.22.5.5zm-1.25 1.66c0 .28-.22.5-.5.5-.27 0-.5-.22-.5-.5 0-.27.23-.5.5-.5.28 0 .5.23.5.5zm-1.67 1.25c0 .3-.22.5-.5.5-.27 0-.5-.2-.5-.5 0-.26.23-.5.5-.5.28 0 .5.24.5.5zm-1.92.8c0 .3-.2.5-.5.5-.27 0-.5-.2-.5-.5 0-.26.23-.5.5-.5.3 0 .5.24.5.5zm-2.06.3c0 .28-.22.5-.5.5-.27 0-.5-.22-.5-.5 0-.27.23-.5.5-.5.28 0 .5.23.5.5zm-2 0c0 .28-.2.5-.5.5-.26 0-.5-.22-.5-.5 0-.27.24-.5.5-.5.3 0 .5.23.5.5zm-1.98 0c0 .28-.23.5-.5.5-.28 0-.5-.22-.5-.5 0-.27.22-.5.5-.5.27 0 .5.23.5.5zm-2 0c0 .28-.22.5-.5.5-.27 0-.5-.22-.5-.5 0-.27.23-.5.5-.5.28 0 .5.23.5.5zm-2 0c0 .28-.2.5-.5.5-.27 0-.5-.22-.5-.5 0-.27.23-.5.5-.5.3 0 .5.23.5.5zm-2 0c0 .28-.2.5-.5.5-.26 0-.5-.22-.5-.5 0-.27.24-.5.5-.5.3 0 .5.23.5.5zm-1.98 0c0 .28-.22.5-.5.5-.27 0-.5-.22-.5-.5 0-.27.23-.5.5-.5.28 0 .5.23.5.5zm-2 0c0 .28-.22.5-.5.5-.27 0-.5-.22-.5-.5 0-.27.23-.5.5-.5.28 0 .5.23.5.5zm-2 0c0 .28-.2.5-.5.5-.26 0-.5-.22-.5-.5 0-.27.24-.5.5-.5.3 0 .5.23.5.5zm-1.98 0c0 .28-.23.5-.5.5-.28 0-.5-.22-.5-.5 0-.27.22-.5.5-.5.27 0 .5.23.5.5zm-2 0c0 .28-.22.5-.5.5-.27 0-.5-.22-.5-.5 0-.27.23-.5.5-.5.28 0 .5.23.5.5zm-2 0c0 .28-.2.5-.5.5-.27 0-.5-.22-.5-.5 0-.27.23-.5.5-.5.3 0 .5.23.5.5zm-1.98 0c0 .28-.23.5-.5.5-.28 0-.5-.22-.5-.5 0-.27.22-.5.5-.5.27 0 .5.23.5.5zm-2 0c0 .28-.22.5-.5.5-.27 0-.5-.22-.5-.5 0-.27.23-.5.5-.5.28 0 .5.23.5.5zm-2 0c0 .28-.22.5-.5.5-.27 0-.5-.22-.5-.5 0-.27.23-.5.5-.5.28 0 .5.23.5.5zm-2 0c0 .28-.2.5-.5.5-.26 0-.5-.22-.5-.5 0-.27.24-.5.5-.5.3 0 .5.23.5.5zm-1.98 0c0 .28-.22.5-.5.5-.27 0-.5-.22-.5-.5 0-.27.23-.5.5-.5.28 0 .5.23.5.5zm-2 0c0 .28-.22.5-.5.5-.27 0-.5-.22-.5-.5 0-.27.23-.5.5-.5.28 0 .5.23.5.5zm-2 0c0 .28-.2.5-.5.5-.26 0-.5-.22-.5-.5 0-.27.24-.5.5-.5.3 0 .5.23.5.5zm-1.98 0c0 .28-.23.5-.5.5-.28 0-.5-.22-.5-.5 0-.27.22-.5.5-.5.27 0 .5.23.5.5zm-2 0c0 .28-.22.5-.5.5-.27 0-.5-.22-.5-.5 0-.27.23-.5.5-.5.28 0 .5.23.5.5zm-2 0c0 .28-.2.5-.5.5-.26 0-.5-.22-.5-.5 0-.27.24-.5.5-.5.3 0 .5.23.5.5zm-1.98 0c0 .28-.23.5-.5.5-.28 0-.5-.22-.5-.5 0-.27.22-.5.5-.5.27 0 .5.23.5.5zm-2 0c0 .28-.22.5-.5.5-.27 0-.5-.22-.5-.5 0-.27.23-.5.5-.5.28 0 .5.23.5.5zm-2 0c0 .28-.2.5-.5.5-.27 0-.5-.22-.5-.5 0-.27.23-.5.5-.5.3 0 .5.23.5.5zm-2 0c0 .28-.2.5-.5.5-.26 0-.5-.22-.5-.5 0-.27.24-.5.5-.5.3 0 .5.23.5.5zm-1.98 0c0 .28-.22.5-.5.5-.27 0-.5-.22-.5-.5 0-.27.23-.5.5-.5.28 0 .5.23.5.5zm-2 0c0 .28-.22.5-.5.5-.27 0-.5-.22-.5-.5 0-.27.23-.5.5-.5.28 0 .5.23.5.5zm-2 0c0 .28-.2.5-.5.5-.26 0-.5-.22-.5-.5 0-.27.24-.5.5-.5.3 0 .5.23.5.5zm-1.98 0c0 .28-.23.5-.5.5-.28 0-.5-.22-.5-.5 0-.27.22-.5.5-.5.27 0 .5.23.5.5zm-2 0c0 .28-.22.5-.5.5-.27 0-.5-.22-.5-.5 0-.27.23-.5.5-.5.28 0 .5.23.5.5zm-2 0c0 .28-.2.5-.5.5-.27 0-.5-.22-.5-.5 0-.27.23-.5.5-.5.3 0 .5.23.5.5zm-1.98 0c0 .28-.23.5-.5.5-.28 0-.5-.22-.5-.5 0-.27.22-.5.5-.5.27 0 .5.23.5.5zm-2 0c0 .28-.22.5-.5.5-.27 0-.5-.22-.5-.5 0-.27.23-.5.5-.5.28 0 .5.23.5.5zm-2 0c0 .28-.22.5-.5.5-.27 0-.5-.22-.5-.5 0-.27.23-.5.5-.5.28 0 .5.23.5.5zm-2 0c0 .28-.2.5-.5.5-.26 0-.5-.22-.5-.5 0-.27.24-.5.5-.5.3 0 .5.23.5.5zm-1.98 0c0 .28-.22.5-.5.5-.27 0-.5-.22-.5-.5 0-.27.23-.5.5-.5.28 0 .5.23.5.5zm-2 0c0 .28-.22.5-.5.5-.27 0-.5-.22-.5-.5 0-.27.23-.5.5-.5.28 0 .5.23.5.5zm-2 0c0 .28-.2.5-.5.5-.26 0-.5-.22-.5-.5 0-.27.24-.5.5-.5.3 0 .5.23.5.5zm-1.98 0c0 .28-.23.5-.5.5-.28 0-.5-.22-.5-.5 0-.27.22-.5.5-.5.27 0 .5.23.5.5zm-2 0c0 .28-.22.5-.5.5-.27 0-.5-.22-.5-.5 0-.27.23-.5.5-.5.28 0 .5.23.5.5zm-2 0c0 .28-.2.5-.5.5-.26 0-.5-.22-.5-.5 0-.27.24-.5.5-.5.3 0 .5.23.5.5zm-1.98 0c0 .28-.23.5-.5.5-.28 0-.5-.22-.5-.5 0-.27.22-.5.5-.5.27 0 .5.23.5.5zm-2 0c0 .28-.22.5-.5.5-.27 0-.5-.22-.5-.5 0-.27.23-.5.5-.5.28 0 .5.23.5.5zm-2 0c0 .28-.22.5-.5.5-.27 0-.5-.22-.5-.5 0-.27.23-.5.5-.5.28 0 .5.23.5.5zm-2 0c0 .28-.2.5-.5.5-.26 0-.5-.22-.5-.5 0-.27.24-.5.5-.5.3 0 .5.23.5.5zm-1.98 0c0 .28-.22.5-.5.5-.27 0-.5-.22-.5-.5 0-.27.23-.5.5-.5.28 0 .5.23.5.5zm-2 0c0 .28-.22.5-.5.5-.27 0-.5-.22-.5-.5 0-.27.23-.5.5-.5.28 0 .5.23.5.5zm-2 0c0 .28-.2.5-.5.5-.26 0-.5-.22-.5-.5 0-.27.24-.5.5-.5.3 0 .5.23.5.5zm-1.98 0c0 .28-.23.5-.5.5-.28 0-.5-.22-.5-.5 0-.27.22-.5.5-.5.27 0 .5.23.5.5zm-2 0c0 .28-.22.5-.5.5-.27 0-.5-.22-.5-.5 0-.27.23-.5.5-.5.28 0 .5.23.5.5zm-2 0c0 .28-.2.5-.5.5-.27 0-.5-.22-.5-.5 0-.27.23-.5.5-.5.3 0 .5.23.5.5zm-1.98 0c0 .28-.23.5-.5.5-.28 0-.5-.22-.5-.5 0-.27.22-.5.5-.5.27 0 .5.23.5.5zm-2 0c0 .28-.22.5-.5.5-.27 0-.5-.22-.5-.5 0-.27.23-.5.5-.5.28 0 .5.23.5.5zm-2 0c0 .28-.22.5-.5.5-.27 0-.5-.22-.5-.5 0-.27.23-.5.5-.5.28 0 .5.23.5.5zm-2 0c0 .28-.2.5-.5.5-.26 0-.5-.22-.5-.5 0-.27.24-.5.5-.5.3 0 .5.23.5.5zm-1.98 0c0 .28-.22.5-.5.5-.27 0-.5-.22-.5-.5 0-.27.23-.5.5-.5.28 0 .5.23.5.5zm-2 0c0 .28-.22.5-.5.5-.27 0-.5-.22-.5-.5 0-.27.23-.5.5-.5.28 0 .5.23.5.5zm-2 0c0 .28-.2.5-.5.5-.26 0-.5-.22-.5-.5 0-.27.24-.5.5-.5.3 0 .5.23.5.5zm-1.98 0c0 .28-.23.5-.5.5-.28 0-.5-.22-.5-.5 0-.27.22-.5.5-.5.27 0 .5.23.5.5zm-2 0c0 .28-.22.5-.5.5-.27 0-.5-.22-.5-.5 0-.27.23-.5.5-.5.28 0 .5.23.5.5zm-2 0c0 .28-.2.5-.5.5-.27 0-.5-.22-.5-.5 0-.27.23-.5.5-.5.3 0 .5.23.5.5zm-1.98 0c0 .28-.23.5-.5.5-.28 0-.5-.22-.5-.5 0-.27.22-.5.5-.5.27 0 .5.23.5.5zm-2 0c0 .28-.22.5-.5.5-.27 0-.5-.22-.5-.5 0-.27.23-.5.5-.5.28 0 .5.23.5.5zm-2 0c0 .28-.22.5-.5.5-.27 0-.5-.22-.5-.5 0-.27.23-.5.5-.5.28 0 .5.23.5.5zm-2 0c0 .28-.2.5-.5.5-.26 0-.5-.22-.5-.5 0-.27.24-.5.5-.5.3 0 .5.23.5.5zm-1.98 0c0 .28-.22.5-.5.5s-.5-.22-.5-.5c0-.27.22-.5.5-.5s.5.23.5.5zm-2 0c0 .28-.22.5-.5.5-.27 0-.5-.22-.5-.5 0-.27.23-.5.5-.5.28 0 .5.23.5.5zm-2 0c0 .28-.2.5-.5.5-.26 0-.5-.22-.5-.5 0-.27.24-.5.5-.5.3 0 .5.23.5.5zm-1.98 0c0 .28-.22.5-.5.5s-.5-.22-.5-.5c0-.27.22-.5.5-.5s.5.23.5.5zm-2 0c0 .28-.22.5-.5.5-.27 0-.5-.22-.5-.5 0-.27.23-.5.5-.5.28 0 .5.23.5.5zm-2 0c0 .28-.2.5-.5.5-.27 0-.5-.22-.5-.5 0-.27.23-.5.5-.5.3 0 .5.23.5.5zm-1.98 0c0 .28-.23.5-.5.5-.28 0-.5-.22-.5-.5 0-.27.22-.5.5-.5.27 0 .5.23.5.5zm-2 0c0 .28-.22.5-.5.5-.27 0-.5-.22-.5-.5 0-.27.23-.5.5-.5.28 0 .5.23.5.5zm-2 0c0 .28-.22.5-.5.5-.27 0-.5-.22-.5-.5 0-.27.23-.5.5-.5.28 0 .5.23.5.5zm-2 0c0 .28-.2.5-.5.5-.26 0-.5-.22-.5-.5 0-.27.24-.5.5-.5.3 0 .5.23.5.5zm-1.98 0c0 .28-.22.5-.5.5s-.5-.22-.5-.5c0-.27.22-.5.5-.5s.5.23.5.5zm-2 0c0 .28-.22.5-.5.5-.27 0-.5-.22-.5-.5 0-.27.23-.5.5-.5.28 0 .5.23.5.5zm-2 0c0 .28-.2.5-.5.5-.26 0-.5-.22-.5-.5 0-.27.24-.5.5-.5.3 0 .5.23.5.5zm-1.98 0c0 .28-.23.5-.5.5-.28 0-.5-.22-.5-.5 0-.27.22-.5.5-.5.27 0 .5.23.5.5zm-2 0c0 .28-.22.5-.5.5-.27 0-.5-.22-.5-.5 0-.27.23-.5.5-.5.28 0 .5.23.5.5zm-2 0c0 .28-.2.5-.5.5-.27 0-.5-.22-.5-.5 0-.27.23-.5.5-.5.3 0 .5.23.5.5zm-1.98 0c0 .28-.23.5-.5.5-.28 0-.5-.22-.5-.5 0-.27.22-.5.5-.5.27 0 .5.23.5.5zm-2 0c0 .28-.22.5-.5.5-.27 0-.5-.22-.5-.5 0-.27.23-.5.5-.5.28 0 .5.23.5.5zm-2 0c0 .28-.22.5-.5.5-.27 0-.5-.22-.5-.5 0-.27.23-.5.5-.5.28 0 .5.23.5.5zm-2 0c0 .28-.2.5-.5.5-.26 0-.5-.22-.5-.5 0-.27.24-.5.5-.5.3 0 .5.23.5.5zm-1.98 0c0 .28-.22.5-.5.5s-.5-.22-.5-.5c0-.27.22-.5.5-.5s.5.23.5.5zm-2 0c0 .28-.22.5-.5.5-.27 0-.5-.22-.5-.5 0-.27.23-.5.5-.5.28 0 .5.23.5.5zm-2 0c0 .28-.2.5-.5.5-.26 0-.5-.22-.5-.5 0-.27.24-.5.5-.5.3 0 .5.23.5.5zm-1.98 0c0 .28-.23.5-.5.5-.28 0-.5-.22-.5-.5 0-.27.22-.5.5-.5.27 0 .5.23.5.5zm-2 0c0 .28-.22.5-.5.5-.27 0-.5-.22-.5-.5 0-.27.23-.5.5-.5.28 0 .5.23.5.5zm-2 0c0 .28-.2.5-.5.5-.27 0-.5-.22-.5-.5 0-.27.23-.5.5-.5.3 0 .5.23.5.5zm-1.98 0c0 .28-.23.5-.5.5-.28 0-.5-.22-.5-.5 0-.27.22-.5.5-.5.27 0 .5.23.5.5zm-2 0c0 .28-.22.5-.5.5-.27 0-.5-.22-.5-.5 0-.27.23-.5.5-.5.28 0 .5.23.5.5zm-2 0c0 .28-.22.5-.5.5-.27 0-.5-.22-.5-.5 0-.27.23-.5.5-.5.28 0 .5.23.5.5zm-2 0c0 .28-.2.5-.5.5-.26 0-.5-.22-.5-.5 0-.27.24-.5.5-.5.3 0 .5.23.5.5zm-1.98 0c0 .28-.22.5-.5.5s-.5-.22-.5-.5c0-.27.22-.5.5-.5s.5.23.5.5zm-2 0c0 .28-.22.5-.5.5-.27 0-.5-.22-.5-.5 0-.27.23-.5.5-.5.28 0 .5.23.5.5zm-2 0c0 .28-.2.5-.5.5-.26 0-.5-.22-.5-.5 0-.27.24-.5.5-.5.3 0 .5.23.5.5zm-1.98 0c0 .28-.23.5-.5.5-.28 0-.5-.22-.5-.5 0-.27.22-.5.5-.5.27 0 .5.23.5.5zm-2 0c0 .28-.22.5-.5.5-.27 0-.5-.22-.5-.5 0-.27.23-.5.5-.5.28 0 .5.23.5.5zm-2 0c0 .28-.2.5-.5.5-.27 0-.5-.22-.5-.5 0-.27.23-.5.5-.5.3 0 .5.23.5.5zm-1.98 0c0 .28-.23.5-.5.5-.28 0-.5-.22-.5-.5 0-.27.22-.5.5-.5.27 0 .5.23.5.5zm-2 0c0 .28-.22.5-.5.5-.27 0-.5-.22-.5-.5 0-.27.23-.5.5-.5.28 0 .5.23.5.5zm-2 0c0 .28-.22.5-.5.5-.27 0-.5-.22-.5-.5 0-.27.23-.5.5-.5.28 0 .5.23.5.5zm-2 0c0 .28-.2.5-.5.5-.26 0-.5-.22-.5-.5 0-.27.24-.5.5-.5.3 0 .5.23.5.5zm-1.98 0c0 .28-.22.5-.5.5s-.5-.22-.5-.5c0-.27.22-.5.5-.5s.5.23.5.5zm-2 0c0 .28-.22.5-.5.5-.27 0-.5-.22-.5-.5 0-.27.23-.5.5-.5.28 0 .5.23.5.5zm-2 0c0 .28-.2.5-.5.5-.26 0-.5-.22-.5-.5 0-.27.24-.5.5-.5.3 0 .5.23.5.5zm-1.98 0c0 .28-.23.5-.5.5-.28 0-.5-.22-.5-.5 0-.27.22-.5.5-.5.27 0 .5.23.5.5zm-2 0c0 .28-.22.5-.5.5-.27 0-.5-.22-.5-.5 0-.27.23-.5.5-.5.28 0 .5.23.5.5zm-2 0c0 .28-.2.5-.5.5-.27 0-.5-.22-.5-.5 0-.27.23-.5.5-.5.3 0 .5.23.5.5zm-1.98 0c0 .28-.23.5-.5.5-.28 0-.5-.22-.5-.5 0-.27.22-.5.5-.5.27 0 .5.23.5.5zm-2 0c0 .28-.22.5-.5.5-.27 0-.5-.22-.5-.5 0-.27.23-.5.5-.5.28 0 .5.23.5.5zm-2 0c0 .28-.22.5-.5.5-.27 0-.5-.22-.5-.5 0-.27.23-.5.5-.5.28 0 .5.23.5.5zm-2 0c0 .28-.2.5-.5.5-.26 0-.5-.22-.5-.5 0-.27.24-.5.5-.5.3 0 .5.23.5.5zm-1.98 0c0 .28-.22.5-.5.5s-.5-.22-.5-.5c0-.27.22-.5.5-.5s.5.23.5.5zm-2 0c0 .28-.22.5-.5.5-.27 0-.5-.22-.5-.5 0-.27.23-.5.5-.5.28 0 .5.23.5.5zm-2 0c0 .28-.2.5-.5.5-.26 0-.5-.22-.5-.5 0-.27.24-.5.5-.5.3 0 .5.23.5.5zm-1.98 0c0 .28-.23.5-.5.5-.28 0-.5-.22-.5-.5 0-.27.22-.5.5-.5.27 0 .5.23.5.5zm-2 0c0 .28-.22.5-.5.5-.27 0-.5-.22-.5-.5 0-.27.23-.5.5-.5.28 0 .5.23.5.5zm-2 0c0 .28-.2.5-.5.5-.27 0-.5-.22-.5-.5 0-.27.23-.5.5-.5.3 0 .5.23.5.5zm-1.98 0c0 .28-.23.5-.5.5-.28 0-.5-.22-.5-.5 0-.27.22-.5.5-.5.27 0 .5.23.5.5zm-2 0c0 .28-.22.5-.5.5-.27 0-.5-.22-.5-.5 0-.27.23-.5.5-.5.28 0 .5.23.5.5zm-2 0c0 .28-.22.5-.5.5-.27 0-.5-.22-.5-.5 0-.27.23-.5.5-.5.28 0 .5.23.5.5zm-2 0c0 .28-.2.5-.5.5-.26 0-.5-.22-.5-.5 0-.27.24-.5.5-.5.3 0 .5.23.5.5zm-1.98 0c0 .28-.22.5-.5.5s-.5-.22-.5-.5c0-.27.22-.5.5-.5s.5.23.5.5zm-2 0c0 .28-.22.5-.5.5-.27 0-.5-.22-.5-.5 0-.27.23-.5.5-.5.28 0 .5.23.5.5zm-2 0c0 .28-.2.5-.5.5-.26 0-.5-.22-.5-.5 0-.27.24-.5.5-.5.3 0 .5.23.5.5zm-1.98 0c0 .28-.23.5-.5.5-.28 0-.5-.22-.5-.5 0-.27.22-.5.5-.5.27 0 .5.23.5.5zm-2 0c0 .28-.22.5-.5.5-.27 0-.5-.22-.5-.5 0-.27.23-.5.5-.5.28 0 .5.23.5.5zm-2 0c0 .28-.2.5-.5.5-.27 0-.5-.22-.5-.5 0-.27.23-.5.5-.5.3 0 .5.23.5.5zm-1.98 0c0 .28-.23.5-.5.5-.28 0-.5-.22-.5-.5 0-.27.22-.5.5-.5.27 0 .5.23.5.5zm-2 0c0 .28-.22.5-.5.5-.27 0-.5-.22-.5-.5 0-.27.23-.5.5-.5.28 0 .5.23.5.5zm-2 0c0 .28-.22.5-.5.5-.27 0-.5-.22-.5-.5 0-.27.23-.5.5-.5.28 0 .5.23.5.5zm-2 0c0 .28-.2.5-.5.5-.26 0-.5-.22-.5-.5 0-.27.24-.5.5-.5.3 0 .5.23.5.5zm-1.98 0c0 .28-.22.5-.5.5s-.5-.22-.5-.5c0-.27.22-.5.5-.5s.5.23.5.5zm-2 0c0 .28-.22.5-.5.5-.27 0-.5-.22-.5-.5 0-.27.23-.5.5-.5.28 0 .5.23.5.5zm-2 0c0 .28-.2.5-.5.5-.26 0-.5-.22-.5-.5 0-.27.24-.5.5-.5.3 0 .5.23.5.5zm-1.98 0c0 .28-.23.5-.5.5-.28 0-.5-.22-.5-.5 0-.27.22-.5.5-.5.27 0 .5.23.5.5zm-2 0c0 .28-.22.5-.5.5-.27 0-.5-.22-.5-.5 0-.27.23-.5.5-.5.28 0 .5.23.5.5zm-2 0c0 .28-.2.5-.5.5-.27 0-.5-.22-.5-.5 0-.27.23-.5.5-.5.3 0 .5.23.5.5zm-1.98 0c0 .28-.23.5-.5.5-.28 0-.5-.22-.5-.5 0-.27.22-.5.5-.5.27 0 .5.23.5.5zm-2 0c0 .28-.22.5-.5.5-.27 0-.5-.22-.5-.5 0-.27.23-.5.5-.5.28 0 .5.23.5.5zm-2 0c0 .28-.22.5-.5.5-.27 0-.5-.22-.5-.5 0-.27.23-.5.5-.5.28 0 .5.23.5.5zm-2 0c0 .28-.2.5-.5.5-.26 0-.5-.22-.5-.5 0-.27.24-.5.5-.5.3 0 .5.23.5.5zm-1.98 0c0 .28-.22.5-.5.5s-.5-.22-.5-.5c0-.27.22-.5.5-.5s.5.23.5.5zm-2 0c0 .28-.22.5-.5.5-.27 0-.5-.22-.5-.5 0-.27.23-.5.5-.5.28 0 .5.23.5.5zm-2 0c0 .28-.2.5-.5.5-.26 0-.5-.22-.5-.5 0-.27.24-.5.5-.5.3 0 .5.23.5.5zm-1.98 0c0 .28-.23.5-.5.5-.28 0-.5-.22-.5-.5 0-.27.22-.5.5-.5.27 0 .5.23.5.5zm-2 0c0 .28-.22.5-.5.5-.27 0-.5-.22-.5-.5 0-.27.23-.5.5-.5.28 0 .5.23.5.5zm-2 0c0 .28-.2.5-.5.5-.27 0-.5-.22-.5-.5 0-.27.23-.5.5-.5.3 0 .5.23.5.5zm-1.98 0c0 .28-.23.5-.5.5-.28 0-.5-.22-.5-.5 0-.27.22-.5.5-.5.27 0 .5.23.5.5zm-2 0c0 .28-.22.5-.5.5-.27 0-.5-.22-.5-.5 0-.27.23-.5.5-.5.28 0 .5.23.5.5zm-2 0c0 .28-.22.5-.5.5-.27 0-.5-.22-.5-.5 0-.27.23-.5.5-.5.28 0 .5.23.5.5zm-2 0c0 .28-.2.5-.5.5-.26 0-.5-.22-.5-.5 0-.27.24-.5.5-.5.3 0 .5.23.5.5zm-1.98 0c0 .28-.22.5-.5.5s-.5-.22-.5-.5c0-.27.22-.5.5-.5s.5.23.5.5zm-2 0c0 .28-.22.5-.5.5-.27 0-.5-.22-.5-.5 0-.27.23-.5.5-.5.28 0 .5.23.5.5zm-2 0c0 .28-.2.5-.5.5-.26 0-.5-.22-.5-.5 0-.27.24-.5.5-.5.3 0 .5.23.5.5zm-1.98 0c0 .28-.23.5-.5.5-.28 0-.5-.22-.5-.5 0-.27.22-.5.5-.5.27 0 .5.23.5.5zm-2.07-.3c0 .3-.22.5-.5.5-.27 0-.5-.2-.5-.5 0-.26.23-.5.5-.5.28 0 .5.24.5.5zm-1.92-.8c0 .3-.22.5-.5.5-.27 0-.5-.2-.5-.5 0-.26.23-.5.5-.5.28 0 .5.24.5.5zm-1.66-1.24c0 .28-.22.5-.5.5s-.5-.22-.5-.5c0-.27.22-.5.5-.5s.5.23.5.5zm-1.25-1.66c0 .27-.24.5-.5.5-.3 0-.5-.23-.5-.5 0-.28.2-.5.5-.5.26 0 .5.22.5.5zm-.8-1.93c0 .28-.23.5-.5.5-.28 0-.5-.22-.5-.5s.22-.5.5-.5c.27 0 .5.22.5.5zm-.3-2.06c0 .28-.23.5-.5.5-.28 0-.5-.22-.5-.5 0-.27.22-.5.5-.5.27 0 .5.23.5.5zm0-2c0 .3-.23.5-.5.5-.28 0-.5-.2-.5-.5 0-.27.22-.5.5-.5.27 0 .5.23.5.5zm0-2c0 .3-.23.5-.5.5-.28 0-.5-.2-.5-.5 0-.26.22-.5.5-.5.27 0 .5.24.5.5zm0-1.98c0 .27-.23.5-.5.5-.28 0-.5-.23-.5-.5 0-.28.22-.5.5-.5.27 0 .5.22.5.5zm0-2c0 .28-.23.5-.5.5-.28 0-.5-.22-.5-.5 0-.27.22-.5.5-.5.27 0 .5.23.5.5zm0-2c0 .28-.23.5-.5.5-.28 0-.5-.22-.5-.5 0-.27.22-.5.5-.5.27 0 .5.23.5.5zm0-2c0 .3-.23.5-.5.5-.28 0-.5-.2-.5-.5 0-.27.22-.5.5-.5.27 0 .5.23.5.5zm0-2c0 .3-.23.5-.5.5-.28 0-.5-.2-.5-.5 0-.26.22-.5.5-.5.27 0 .5.24.5.5zm0-1.98c0 .27-.23.5-.5.5-.28 0-.5-.23-.5-.5 0-.28.22-.5.5-.5.27 0 .5.22.5.5zm0-2c0 .28-.23.5-.5.5-.28 0-.5-.22-.5-.5 0-.27.22-.5.5-.5.27 0 .5.23.5.5zm0-2c0 .28-.23.5-.5.5-.28 0-.5-.22-.5-.5 0-.27.22-.5.5-.5.27 0 .5.23.5.5zm0-2c0 .3-.23.5-.5.5-.28 0-.5-.2-.5-.5 0-.27.22-.5.5-.5.27 0 .5.23.5.5zm0-2c0 .3-.23.5-.5.5-.28 0-.5-.2-.5-.5 0-.26.22-.5.5-.5.27 0 .5.24.5.5zm0-1.98c0 .27-.23.5-.5.5-.28 0-.5-.23-.5-.5 0-.28.22-.5.5-.5.27 0 .5.22.5.5zm0-2c0 .28-.23.5-.5.5-.28 0-.5-.22-.5-.5 0-.27.22-.5.5-.5.27 0 .5.23.5.5zm0-2c0 .28-.23.5-.5.5-.28 0-.5-.22-.5-.5 0-.27.22-.5.5-.5.27 0 .5.23.5.5zm0-2c0 .3-.23.5-.5.5-.28 0-.5-.2-.5-.5 0-.27.22-.5.5-.5.27 0 .5.23.5.5zm0-2c0 .3-.23.5-.5.5-.28 0-.5-.2-.5-.5 0-.26.22-.5.5-.5.27 0 .5.24.5.5zm0-1.98c0 .27-.23.5-.5.5-.28 0-.5-.23-.5-.5 0-.28.22-.5.5-.5.27 0 .5.22.5.5zm0-2c0 .28-.23.5-.5.5-.28 0-.5-.22-.5-.5 0-.27.22-.5.5-.5.27 0 .5.23.5.5zm0-2c0 .28-.23.5-.5.5-.28 0-.5-.22-.5-.5 0-.27.22-.5.5-.5.27 0 .5.23.5.5zm0-2c0 .3-.23.5-.5.5-.28 0-.5-.2-.5-.5 0-.27.22-.5.5-.5.27 0 .5.23.5.5zm0-2c0 .3-.23.5-.5.5-.28 0-.5-.2-.5-.5 0-.26.22-.5.5-.5.27 0 .5.24.5.5zm0-1.98c0 .27-.23.5-.5.5-.28 0-.5-.23-.5-.5 0-.28.22-.5.5-.5.27 0 .5.22.5.5zm0-2c0 .28-.23.5-.5.5-.28 0-.5-.22-.5-.5 0-.27.22-.5.5-.5.27 0 .5.23.5.5zm0-2c0 .28-.23.5-.5.5-.28 0-.5-.22-.5-.5 0-.27.22-.5.5-.5.27 0 .5.23.5.5zm0-2c0 .3-.23.5-.5.5-.28 0-.5-.2-.5-.5 0-.27.22-.5.5-.5.27 0 .5.23.5.5zm0-2c0 .3-.23.5-.5.5-.28 0-.5-.2-.5-.5 0-.26.22-.5.5-.5.27 0 .5.24.5.5zm0-1.98c0 .27-.23.5-.5.5-.28 0-.5-.23-.5-.5 0-.28.22-.5.5-.5.27 0 .5.22.5.5zm0-2c0 .28-.23.5-.5.5-.28 0-.5-.22-.5-.5 0-.27.22-.5.5-.5.27 0 .5.23.5.5zm0-2c0 .28-.23.5-.5.5-.28 0-.5-.22-.5-.5 0-.27.22-.5.5-.5.27 0 .5.23.5.5zm0-2c0 .3-.23.5-.5.5-.28 0-.5-.2-.5-.5 0-.27.22-.5.5-.5.27 0 .5.23.5.5zm0-2c0 .3-.23.5-.5.5-.28 0-.5-.2-.5-.5 0-.26.22-.5.5-.5.27 0 .5.24.5.5zm0-1.98c0 .27-.23.5-.5.5-.28 0-.5-.23-.5-.5 0-.28.22-.5.5-.5.27 0 .5.22.5.5zm0-2c0 .28-.23.5-.5.5-.28 0-.5-.22-.5-.5 0-.27.22-.5.5-.5.27 0 .5.23.5.5zm0-2c0 .28-.23.5-.5.5-.28 0-.5-.22-.5-.5 0-.27.22-.5.5-.5.27 0 .5.23.5.5zm0-2c0 .3-.23.5-.5.5-.28 0-.5-.2-.5-.5 0-.27.22-.5.5-.5.27 0 .5.23.5.5zm0-2c0 .3-.23.5-.5.5-.28 0-.5-.2-.5-.5 0-.26.22-.5.5-.5.27 0 .5.24.5.5zm0-1.98c0 .27-.23.5-.5.5-.28 0-.5-.23-.5-.5 0-.28.22-.5.5-.5.27 0 .5.22.5.5zm0-2c0 .28-.23.5-.5.5-.28 0-.5-.22-.5-.5 0-.27.22-.5.5-.5.27 0 .5.23.5.5zm0-2c0 .28-.23.5-.5.5-.28 0-.5-.22-.5-.5 0-.27.22-.5.5-.5.27 0 .5.23.5.5zm0-2c0 .3-.23.5-.5.5-.28 0-.5-.2-.5-.5 0-.27.22-.5.5-.5.27 0 .5.23.5.5zm0-2c0 .3-.23.5-.5.5-.28 0-.5-.2-.5-.5 0-.26.22-.5.5-.5.27 0 .5.24.5.5zm0-1.98c0 .27-.23.5-.5.5-.28 0-.5-.23-.5-.5 0-.28.22-.5.5-.5.27 0 .5.22.5.5zm0-2c0 .28-.23.5-.5.5-.28 0-.5-.22-.5-.5 0-.27.22-.5.5-.5.27 0 .5.23.5.5zm0-2c0 .28-.23.5-.5.5-.28 0-.5-.22-.5-.5 0-.27.22-.5.5-.5.27 0 .5.23.5.5zm0-2c0 .3-.23.5-.5.5-.28 0-.5-.2-.5-.5 0-.27.22-.5.5-.5.27 0 .5.23.5.5zm0-2c0 .3-.23.5-.5.5-.28 0-.5-.2-.5-.5 0-.26.22-.5.5-.5.27 0 .5.24.5.5zm0-1.98c0 .27-.23.5-.5.5-.28 0-.5-.23-.5-.5 0-.28.22-.5.5-.5.27 0 .5.22.5.5zm0-2c0 .28-.23.5-.5.5-.28 0-.5-.22-.5-.5 0-.27.22-.5.5-.5.27 0 .5.23.5.5zm0-2c0 .28-.23.5-.5.5-.28 0-.5-.22-.5-.5 0-.27.22-.5.5-.5.27 0 .5.23.5.5zm0-2c0 .3-.23.5-.5.5-.28 0-.5-.2-.5-.5 0-.27.22-.5.5-.5.27 0 .5.23.5.5zm0-2c0 .3-.23.5-.5.5-.28 0-.5-.2-.5-.5 0-.26.22-.5.5-.5.27 0 .5.24.5.5zm0-1.98c0 .27-.23.5-.5.5-.28 0-.5-.23-.5-.5 0-.28.22-.5.5-.5.27 0 .5.22.5.5zm0-2c0 .28-.23.5-.5.5-.28 0-.5-.22-.5-.5 0-.27.22-.5.5-.5.27 0 .5.23.5.5zm0-2c0 .28-.23.5-.5.5-.28 0-.5-.22-.5-.5 0-.27.22-.5.5-.5.27 0 .5.23.5.5zm0-2c0 .3-.23.5-.5.5-.28 0-.5-.2-.5-.5 0-.27.22-.5.5-.5.27 0 .5.23.5.5zm0-2c0 .3-.23.5-.5.5-.28 0-.5-.2-.5-.5 0-.26.22-.5.5-.5.27 0 .5.24.5.5zm0-1.98c0 .27-.23.5-.5.5-.28 0-.5-.23-.5-.5 0-.28.22-.5.5-.5.27 0 .5.22.5.5zm0-2c0 .28-.23.5-.5.5-.28 0-.5-.22-.5-.5 0-.27.22-.5.5-.5.27 0 .5.23.5.5z" fill="#3a414a"/><g><use xlink:href="#y" transform="matrix(1,0,0,1,547.0976190476188,211.84178527749566) translate(78.17499999999998 29.9)"/><use xlink:href="#z" transform="matrix(1,0,0,1,547.0976190476188,211.84178527749566) translate(152.925 29.9)"/><use xlink:href="#A" transform="matrix(1,0,0,1,547.0976190476188,211.84178527749566) translate(25.724999999999994 51.5)"/><use xlink:href="#B" transform="matrix(1,0,0,1,547.0976190476188,211.84178527749566) translate(69.625 51.5)"/><use xlink:href="#C" transform="matrix(1,0,0,1,547.0976190476188,211.84178527749566) translate(118.575 51.5)"/><use xlink:href="#D" transform="matrix(1,0,0,1,547.0976190476188,211.84178527749566) translate(201.475 51.5)"/><use xlink:href="#E" transform="matrix(1,0,0,1,547.0976190476188,211.84178527749566) translate(220.42499999999998 51.5)"/><use xlink:href="#F" transform="matrix(1,0,0,1,547.0976190476188,211.84178527749566) translate(250.42499999999998 51.5)"/><use xlink:href="#G" transform="matrix(1,0,0,1,547.0976190476188,211.84178527749566) translate(96.22592592592592 73.63333333333334)"/><use xlink:href="#H" transform="matrix(1,0,0,1,547.0976190476188,211.84178527749566) translate(91.04074074074074 98.96666666666668)"/></g><defs><path fill="#3a414a" d="M67-125c0 54 23 88 75 88 28 0 53-7 68-21v-34h-60v-39h108v91C232-14 192 4 140 4 58 4 20-42 15-125 8-236 126-280 215-234c19 10 29 26 37 47l-47 15c-11-23-29-39-63-39-53 1-75 33-75 86" id="I"/><path fill="#3a414a" d="M133-34C117-15 103 5 69 4 32 3 11-16 11-54c-1-60 55-63 116-61 1-26-3-47-28-47-18 1-26 9-28 27l-52-2c7-38 36-58 82-57s74 22 75 68l1 82c-1 14 12 18 25 15v27c-30 8-71 5-69-32zm-48 3c29 0 43-24 42-57-32 0-66-3-65 30 0 17 8 27 23 27" id="J"/><path fill="#3a414a" d="M220-157c-53 9-28 100-34 157h-49v-107c1-27-5-49-29-50C55-147 81-57 75 0H25l-1-190h47c2 12-1 28 3 38 10-53 101-56 108 0 13-22 24-43 59-42 82 1 51 116 57 194h-49v-107c-1-25-5-48-29-50" id="K"/><path fill="#3a414a" d="M185-48c-13 30-37 53-82 52C43 2 14-33 14-96s30-98 90-98c62 0 83 45 84 108H66c0 31 8 55 39 56 18 0 30-7 34-22zm-45-69c5-46-57-63-70-21-2 6-4 13-4 21h74" id="L"/><path fill="#3a414a" d="M169-182c-1-43-94-46-97-3 18 66 151 10 154 114 3 95-165 93-204 36-6-8-10-19-12-30l50-8c3 46 112 56 116 5-17-69-150-10-154-114-4-87 153-88 188-35 5 8 8 18 10 28" id="M"/><path fill="#3a414a" d="M115-3C79 11 28 4 28-45v-112H4v-33h27l15-45h31v45h36v33H77v99c-1 23 16 31 38 25v30" id="N"/><g id="a"><use transform="matrix(0.05,0,0,0.05,0,0)" xlink:href="#I"/><use transform="matrix(0.05,0,0,0.05,14,0)" xlink:href="#J"/><use transform="matrix(0.05,0,0,0.05,24,0)" xlink:href="#K"/><use transform="matrix(0.05,0,0,0.05,40,0)" xlink:href="#L"/><use transform="matrix(0.05,0,0,0.05,50,0)" xlink:href="#M"/><use transform="matrix(0.05,0,0,0.05,62,0)" xlink:href="#N"/><use transform="matrix(0.05,0,0,0.05,67.95,0)" xlink:href="#J"/><use transform="matrix(0.05,0,0,0.05,77.95,0)" xlink:href="#N"/><use transform="matrix(0.05,0,0,0.05,83.9,0)" xlink:href="#L"/></g><path fill="#3a414a" d="M240-174c0 40-23 61-54 70L253 0h-59l-57-94H76V0H24v-248c93 4 217-23 216 74zM76-134c48-2 112 12 112-38 0-48-66-32-112-35v73" id="O"/><path fill="#3a414a" d="M121-226c-27-7-43 5-38 36h38v33H83V0H34v-157H6v-33h28c-9-59 32-81 87-68v32" id="P"/><path fill="#3a414a" d="M135-150c-39-12-60 13-60 57V0H25l-1-190h47c2 13-1 29 3 40 6-28 27-53 61-41v41" id="Q"/><g id="b"><use transform="matrix(0.05,0,0,0.05,0,0)" xlink:href="#O"/><use transform="matrix(0.05,0,0,0.05,12.950000000000001,0)" xlink:href="#L"/><use transform="matrix(0.05,0,0,0.05,22.950000000000003,0)" xlink:href="#P"/><use transform="matrix(0.05,0,0,0.05,28.900000000000002,0)" xlink:href="#L"/><use transform="matrix(0.05,0,0,0.05,38.900000000000006,0)" xlink:href="#Q"/><use transform="matrix(0.05,0,0,0.05,45.900000000000006,0)" xlink:href="#L"/><use transform="matrix(0.05,0,0,0.05,55.900000000000006,0)" xlink:href="#L"/></g><path fill="#3a414a" d="M30 0v-248h33v221h125V0H30" id="R"/><path fill="#3a414a" d="M100-194c62-1 85 37 85 99 1 63-27 99-86 99S16-35 15-95c0-66 28-99 85-99zM99-20c44 1 53-31 53-75 0-43-8-75-51-75s-53 32-53 75 10 74 51 75" id="S"/><path fill="#3a414a" d="M115-194c55 1 70 41 70 98S169 2 115 4C84 4 66-9 55-30l1 105H24l-1-265h31l2 30c10-21 28-34 59-34zm-8 174c40 0 45-34 45-75s-6-73-45-74c-42 0-51 32-51 76 0 43 10 73 51 73" id="T"/><g id="c"><use transform="matrix(0.05,0,0,0.05,0,0)" xlink:href="#R"/><use transform="matrix(0.05,0,0,0.05,10,0)" xlink:href="#S"/><use transform="matrix(0.05,0,0,0.05,20,0)" xlink:href="#S"/><use transform="matrix(0.05,0,0,0.05,30,0)" xlink:href="#T"/></g><path d="M143 4C61 4 22-44 18-125c-5-107 100-154 193-111 17 8 29 25 37 43l-32 9c-13-25-37-40-76-40-61 0-88 39-88 99 0 61 29 100 91 101 35 0 62-11 79-27v-45h-74v-28h105v86C228-13 192 4 143 4" id="U"/><path d="M141-36C126-15 110 5 73 4 37 3 15-17 15-53c-1-64 63-63 125-63 3-35-9-54-41-54-24 1-41 7-42 31l-33-3c5-37 33-52 76-52 45 0 72 20 72 64v82c-1 20 7 32 28 27v20c-31 9-61-2-59-35zM48-53c0 20 12 33 32 33 41-3 63-29 60-74-43 2-92-5-92 41" id="V"/><path d="M210-169c-67 3-38 105-44 169h-31v-121c0-29-5-50-35-48C34-165 62-65 56 0H25l-1-190h30c1 10-1 24 2 32 10-44 99-50 107 0 11-21 27-35 58-36 85-2 47 119 55 194h-31v-121c0-29-5-49-35-48" id="W"/><path d="M100-194c63 0 86 42 84 106H49c0 40 14 67 53 68 26 1 43-12 49-29l28 8c-11 28-37 45-77 45C44 4 14-33 15-96c1-61 26-98 85-98zm52 81c6-60-76-77-97-28-3 7-6 17-6 28h103" id="X"/><g id="d"><use transform="matrix(0.05,0,0,0.05,0,0)" xlink:href="#U"/><use transform="matrix(0.05,0,0,0.05,14,0)" xlink:href="#V"/><use transform="matrix(0.05,0,0,0.05,24,0)" xlink:href="#W"/><use transform="matrix(0.05,0,0,0.05,38.95,0)" xlink:href="#X"/></g><path d="M24-231v-30h32v30H24zM24 0v-190h32V0H24" id="Y"/><path d="M135-143c-3-34-86-38-87 0 15 53 115 12 119 90S17 21 10-45l28-5c4 36 97 45 98 0-10-56-113-15-118-90-4-57 82-63 122-42 12 7 21 19 24 35" id="Z"/><g id="e"><use transform="matrix(0.05,0,0,0.05,0,0)" xlink:href="#Y"/><use transform="matrix(0.05,0,0,0.05,3.95,0)" xlink:href="#Z"/></g><path d="M117-194c89-4 53 116 60 194h-32v-121c0-31-8-49-39-48C34-167 62-67 57 0H25l-1-190h30c1 10-1 24 2 32 11-22 29-35 61-36" id="aa"/><path d="M100-194c62-1 85 37 85 99 1 63-27 99-86 99S16-35 15-95c0-66 28-99 85-99zM99-20c44 1 53-31 53-75 0-43-8-75-51-75s-53 32-53 75 10 74 51 75" id="ab"/><path d="M59-47c-2 24 18 29 38 22v24C64 9 27 4 27-40v-127H5v-23h24l9-43h21v43h35v23H59v120" id="ac"/><g id="f"><use transform="matrix(0.05,0,0,0.05,0,0)" xlink:href="#aa"/><use transform="matrix(0.05,0,0,0.05,10,0)" xlink:href="#ab"/><use transform="matrix(0.05,0,0,0.05,20,0)" xlink:href="#ac"/></g><path d="M108 0H70L1-190h34L89-25l56-165h34" id="ad"/><path d="M114-163C36-179 61-72 57 0H25l-1-190h30c1 12-1 29 2 39 6-27 23-49 58-41v29" id="ae"/><g id="g"><use transform="matrix(0.05,0,0,0.05,0,0)" xlink:href="#ab"/><use transform="matrix(0.05,0,0,0.05,10,0)" xlink:href="#ad"/><use transform="matrix(0.05,0,0,0.05,19,0)" xlink:href="#X"/><use transform="matrix(0.05,0,0,0.05,29,0)" xlink:href="#ae"/></g><path d="M177-190C167-65 218 103 67 71c-23-6-38-20-44-43l32-5c15 47 100 32 89-28v-30C133-14 115 1 83 1 29 1 15-40 15-95c0-56 16-97 71-98 29-1 48 16 59 35 1-10 0-23 2-32h30zM94-22c36 0 50-32 50-73 0-42-14-75-50-75-39 0-46 34-46 75s6 73 46 73" id="af"/><path d="M205 0l-28-72H64L36 0H1l101-248h38L239 0h-34zm-38-99l-47-123c-12 45-31 82-46 123h93" id="ag"/><path d="M96-169c-40 0-48 33-48 73s9 75 48 75c24 0 41-14 43-38l32 2c-6 37-31 61-74 61-59 0-76-41-82-99-10-93 101-131 147-64 4 7 5 14 7 22l-32 3c-4-21-16-35-41-35" id="ah"/><path d="M30-248c87 1 191-15 191 75 0 78-77 80-158 76V0H30v-248zm33 125c57 0 124 11 124-50 0-59-68-47-124-48v98" id="ai"/><path d="M24 0v-261h32V0H24" id="aj"/><path d="M179-190L93 31C79 59 56 82 12 73V49c39 6 53-20 64-50L1-190h34L92-34l54-156h33" id="ak"/><path d="M33 0v-248h34V0H33" id="al"/><path d="M101-234c-31-9-42 10-38 44h38v23H63V0H32v-167H5v-23h27c-7-52 17-82 69-68v24" id="am"/><path d="M87 75C49 33 22-17 22-94c0-76 28-126 65-167h31c-38 41-64 92-64 168S80 34 118 75H87" id="an"/><path d="M33-261c38 41 65 92 65 168S71 34 33 75H2C39 34 66-17 66-93S39-220 2-261h31" id="ao"/><g id="h"><use transform="matrix(0.05185185185185186,0,0,0.05185185185185186,0,0)" xlink:href="#af"/><use transform="matrix(0.05185185185185186,0,0,0.05185185185185186,10.370370370370372,0)" xlink:href="#X"/><use transform="matrix(0.05185185185185186,0,0,0.05185185185185186,20.740740740740744,0)" xlink:href="#ac"/><use transform="matrix(0.05185185185185186,0,0,0.05185185185185186,25.92592592592593,0)" xlink:href="#ag"/><use transform="matrix(0.05185185185185186,0,0,0.05185185185185186,38.37037037037038,0)" xlink:href="#ah"/><use transform="matrix(0.05185185185185186,0,0,0.05185185185185186,47.70370370370372,0)" xlink:href="#ac"/><use transform="matrix(0.05185185185185186,0,0,0.05185185185185186,52.8888888888889,0)" xlink:href="#Y"/><use transform="matrix(0.05185185185185186,0,0,0.05185185185185186,56.985185185185195,0)" xlink:href="#ad"/><use transform="matrix(0.05185185185185186,0,0,0.05185185185185186,66.31851851851853,0)" xlink:href="#X"/><use transform="matrix(0.05185185185185186,0,0,0.05185185185185186,76.6888888888889,0)" xlink:href="#ai"/><use transform="matrix(0.05185185185185186,0,0,0.05185185185185186,89.13333333333334,0)" xlink:href="#aj"/><use transform="matrix(0.05185185185185186,0,0,0.05185185185185186,93.22962962962964,0)" xlink:href="#V"/><use transform="matrix(0.05185185185185186,0,0,0.05185185185185186,103.60000000000001,0)" xlink:href="#ak"/><use transform="matrix(0.05185185185185186,0,0,0.05185185185185186,112.93333333333335,0)" xlink:href="#X"/><use transform="matrix(0.05185185185185186,0,0,0.05185185185185186,123.30370370370369,0)" xlink:href="#ae"/><use transform="matrix(0.05185185185185186,0,0,0.05185185185185186,129.47407407407408,0)" xlink:href="#al"/><use transform="matrix(0.05185185185185186,0,0,0.05185185185185186,134.65925925925927,0)" xlink:href="#aa"/><use transform="matrix(0.05185185185185186,0,0,0.05185185185185186,145.02962962962965,0)" xlink:href="#am"/><use transform="matrix(0.05185185185185186,0,0,0.05185185185185186,150.21481481481484,0)" xlink:href="#ab"/><use transform="matrix(0.05185185185185186,0,0,0.05185185185185186,160.58518518518522,0)" xlink:href="#an"/><use transform="matrix(0.05185185185185186,0,0,0.05185185185185186,166.7555555555556,0)" xlink:href="#ao"/></g><path d="M143 0L79-87 56-68V0H24v-261h32v163l83-92h37l-77 82L181 0h-38" id="ap"/><path d="M240 0l2-218c-23 76-54 145-80 218h-23L58-218 59 0H30v-248h44l77 211c21-75 51-140 76-211h43V0h-30" id="aq"/><path d="M84 4C-5 8 30-112 23-190h32v120c0 31 7 50 39 49 72-2 45-101 50-169h31l1 190h-30c-1-10 1-25-2-33-11 22-28 36-60 37" id="ar"/><g id="i"><use transform="matrix(0.05185185185185186,0,0,0.05185185185185186,0,0)" xlink:href="#W"/><use transform="matrix(0.05185185185185186,0,0,0.05185185185185186,15.503703703703705,0)" xlink:href="#V"/><use transform="matrix(0.05185185185185186,0,0,0.05185185185185186,25.874074074074077,0)" xlink:href="#ap"/><use transform="matrix(0.05185185185185186,0,0,0.05185185185185186,35.20740740740741,0)" xlink:href="#X"/><use transform="matrix(0.05185185185185186,0,0,0.05185185185185186,45.57777777777778,0)" xlink:href="#aq"/><use transform="matrix(0.05185185185185186,0,0,0.05185185185185186,61.08148148148149,0)" xlink:href="#ab"/><use transform="matrix(0.05185185185185186,0,0,0.05185185185185186,71.45185185185186,0)" xlink:href="#ad"/><use transform="matrix(0.05185185185185186,0,0,0.05185185185185186,80.78518518518518,0)" xlink:href="#X"/><use transform="matrix(0.05185185185185186,0,0,0.05185185185185186,91.15555555555555,0)" xlink:href="#an"/><use transform="matrix(0.05185185185185186,0,0,0.05185185185185186,97.32592592592593,0)" xlink:href="#ac"/><use transform="matrix(0.05185185185185186,0,0,0.05185185185185186,102.51111111111112,0)" xlink:href="#ar"/><use transform="matrix(0.05185185185185186,0,0,0.05185185185185186,112.88148148148149,0)" xlink:href="#ae"/><use transform="matrix(0.05185185185185186,0,0,0.05185185185185186,119.05185185185186,0)" xlink:href="#aa"/><use transform="matrix(0.05185185185185186,0,0,0.05185185185185186,129.42222222222225,0)" xlink:href="#ag"/><use transform="matrix(0.05185185185185186,0,0,0.05185185185185186,141.8666666666667,0)" xlink:href="#ah"/><use transform="matrix(0.05185185185185186,0,0,0.05185185185185186,151.20000000000005,0)" xlink:href="#ac"/><use transform="matrix(0.05185185185185186,0,0,0.05185185185185186,156.38518518518524,0)" xlink:href="#Y"/><use transform="matrix(0.05185185185185186,0,0,0.05185185185185186,160.48148148148152,0)" xlink:href="#ab"/><use transform="matrix(0.05185185185185186,0,0,0.05185185185185186,170.8518518518519,0)" xlink:href="#aa"/><use transform="matrix(0.05185185185185186,0,0,0.05185185185185186,181.22222222222229,0)" xlink:href="#ao"/></g><path d="M115-194c55 1 70 41 70 98S169 2 115 4C84 4 66-9 55-30l1 105H24l-1-265h31l2 30c10-21 28-34 59-34zm-8 174c40 0 45-34 45-75s-6-73-45-74c-42 0-51 32-51 76 0 43 10 73 51 73" id="as"/><path d="M85-194c31 0 48 13 60 33l-1-100h32l1 261h-30c-2-10 0-23-3-31C134-8 116 4 85 4 32 4 16-35 15-94c0-66 23-100 70-100zm9 24c-40 0-46 34-46 75 0 40 6 74 45 74 42 0 51-32 51-76 0-42-9-74-50-73" id="at"/><g id="j"><use transform="matrix(0.05185185185185186,0,0,0.05185185185185186,0,0)" xlink:href="#X"/><use transform="matrix(0.05185185185185186,0,0,0.05185185185185186,10.370370370370372,0)" xlink:href="#aj"/><use transform="matrix(0.05185185185185186,0,0,0.05185185185185186,14.466666666666669,0)" xlink:href="#Y"/><use transform="matrix(0.05185185185185186,0,0,0.05185185185185186,18.562962962962963,0)" xlink:href="#W"/><use transform="matrix(0.05185185185185186,0,0,0.05185185185185186,34.06666666666667,0)" xlink:href="#Y"/><use transform="matrix(0.05185185185185186,0,0,0.05185185185185186,38.162962962962965,0)" xlink:href="#aa"/><use transform="matrix(0.05185185185185186,0,0,0.05185185185185186,48.53333333333334,0)" xlink:href="#V"/><use transform="matrix(0.05185185185185186,0,0,0.05185185185185186,58.90370370370371,0)" xlink:href="#ac"/><use transform="matrix(0.05185185185185186,0,0,0.05185185185185186,64.0888888888889,0)" xlink:href="#X"/><use transform="matrix(0.05185185185185186,0,0,0.05185185185185186,74.45925925925927,0)" xlink:href="#ai"/><use transform="matrix(0.05185185185185186,0,0,0.05185185185185186,86.90370370370371,0)" xlink:href="#aj"/><use transform="matrix(0.05185185185185186,0,0,0.05185185185185186,91.00000000000001,0)" xlink:href="#V"/><use transform="matrix(0.05185185185185186,0,0,0.05185185185185186,101.37037037037038,0)" xlink:href="#ak"/><use transform="matrix(0.05185185185185186,0,0,0.05185185185185186,110.70370370370371,0)" xlink:href="#X"/><use transform="matrix(0.05185185185185186,0,0,0.05185185185185186,121.07407407407409,0)" xlink:href="#ae"/><use transform="matrix(0.05185185185185186,0,0,0.05185185185185186,127.24444444444444,0)" xlink:href="#an"/><use transform="matrix(0.05185185185185186,0,0,0.05185185185185186,133.4148148148148,0)" xlink:href="#as"/><use transform="matrix(0.05185185185185186,0,0,0.05185185185185186,143.78518518518518,0)" xlink:href="#aj"/><use transform="matrix(0.05185185185185186,0,0,0.05185185185185186,147.88148148148147,0)" xlink:href="#V"/><use transform="matrix(0.05185185185185186,0,0,0.05185185185185186,158.25185185185185,0)" xlink:href="#ak"/><use transform="matrix(0.05185185185185186,0,0,0.05185185185185186,167.5851851851852,0)" xlink:href="#X"/><use transform="matrix(0.05185185185185186,0,0,0.05185185185185186,177.95555555555558,0)" xlink:href="#ae"/><use transform="matrix(0.05185185185185186,0,0,0.05185185185185186,184.12592592592594,0)" xlink:href="#al"/><use transform="matrix(0.05185185185185186,0,0,0.05185185185185186,189.31111111111113,0)" xlink:href="#at"/><use transform="matrix(0.05185185185185186,0,0,0.05185185185185186,199.6814814814815,0)" xlink:href="#ao"/></g><path fill="#3a414a" d="M205 0l-28-72H64L36 0H1l101-248h38L239 0h-34zm-38-99l-47-123c-12 45-31 82-46 123h93" id="au"/><path fill="#3a414a" d="M24 0v-261h32V0H24" id="av"/><path fill="#3a414a" d="M59-47c-2 24 18 29 38 22v24C64 9 27 4 27-40v-127H5v-23h24l9-43h21v43h35v23H59v120" id="aw"/><path fill="#3a414a" d="M100-194c63 0 86 42 84 106H49c0 40 14 67 53 68 26 1 43-12 49-29l28 8c-11 28-37 45-77 45C44 4 14-33 15-96c1-61 26-98 85-98zm52 81c6-60-76-77-97-28-3 7-6 17-6 28h103" id="ax"/><path fill="#3a414a" d="M114-163C36-179 61-72 57 0H25l-1-190h30c1 12-1 29 2 39 6-27 23-49 58-41v29" id="ay"/><path fill="#3a414a" d="M117-194c89-4 53 116 60 194h-32v-121c0-31-8-49-39-48C34-167 62-67 57 0H25l-1-190h30c1 10-1 24 2 32 11-22 29-35 61-36" id="az"/><path fill="#3a414a" d="M141-36C126-15 110 5 73 4 37 3 15-17 15-53c-1-64 63-63 125-63 3-35-9-54-41-54-24 1-41 7-42 31l-33-3c5-37 33-52 76-52 45 0 72 20 72 64v82c-1 20 7 32 28 27v20c-31 9-61-2-59-35zM48-53c0 20 12 33 32 33 41-3 63-29 60-74-43 2-92-5-92 41" id="aA"/><path fill="#3a414a" d="M24-231v-30h32v30H24zM24 0v-190h32V0H24" id="aB"/><path fill="#3a414a" d="M108 0H70L1-190h34L89-25l56-165h34" id="aC"/><g id="k"><use transform="matrix(0.05,0,0,0.05,0,0)" xlink:href="#au"/><use transform="matrix(0.05,0,0,0.05,12,0)" xlink:href="#av"/><use transform="matrix(0.05,0,0,0.05,15.949999999999998,0)" xlink:href="#aw"/><use transform="matrix(0.05,0,0,0.05,20.95,0)" xlink:href="#ax"/><use transform="matrix(0.05,0,0,0.05,30.950000000000003,0)" xlink:href="#ay"/><use transform="matrix(0.05,0,0,0.05,36.9,0)" xlink:href="#az"/><use transform="matrix(0.05,0,0,0.05,46.9,0)" xlink:href="#aA"/><use transform="matrix(0.05,0,0,0.05,56.900000000000006,0)" xlink:href="#aw"/><use transform="matrix(0.05,0,0,0.05,61.900000000000006,0)" xlink:href="#aB"/><use transform="matrix(0.05,0,0,0.05,65.85,0)" xlink:href="#aC"/><use transform="matrix(0.05,0,0,0.05,74.85,0)" xlink:href="#ax"/></g><path fill="#3a414a" d="M50-231l6-30h32l-6 30H50zM6 0l37-190h31L37 0H6" id="aD"/><path fill="#3a414a" d="M76-167L44 0H12l33-167H18l4-23h27c3-47 25-81 82-69l-4 24c-35-8-44 15-46 45h37l-5 23H76" id="aE"/><g id="m"><use transform="matrix(0.05,0,0,0.05,0,0)" xlink:href="#aD"/><use transform="matrix(0.05,0,0,0.05,3.95,0)" xlink:href="#aE"/></g><path fill="#3a414a" d="M-7 75l65-336h72l-5 23H84L28 52h41l-4 23H-7" id="aF"/><path d="M50-231l6-30h32l-6 30H50zM6 0l37-190h31L37 0H6" id="aG"/><path d="M55-144c13 50 104 24 104 88C159 21 15 23 1-39l26-10c6 40 102 42 102-4-13-50-104-23-104-87 0-71 143-71 148-8l-29 4c-5-35-85-37-89 0" id="aH"/><path d="M119 0H84L31-248h34l41 218 126-218h36" id="aI"/><path d="M165-48c-4 18 1 34 23 27l-3 20c-29 8-62 0-52-35h-2C116-14 99 4 63 4 30 4 8-16 8-49c0-68 71-67 138-67 10-26 0-56-31-54-26 1-42 9-47 31l-32-5c8-67 160-71 144 15-5 28-9 54-15 81zM42-50c3 52 80 24 89-6 7-12 7-24 11-38-47 1-103-4-100 44" id="aJ"/><path d="M6 0l50-261h32L37 0H6" id="aK"/><path d="M133-28C103 26-5 8 13-77c13-62 24-115 90-117 29-1 46 15 56 35l19-102h32L160 0h-30zM45-64c-2 27 10 43 35 43 54-1 69-50 69-103 0-29-15-46-42-46-53-1-58 58-62 106" id="aL"/><path d="M238-179c0 84-86 86-175 82L45 0H11l48-248c82 0 179-12 179 69zm-34 1c0-53-64-42-116-43l-19 98c63 0 135 9 135-55" id="aM"/><path d="M44-68c0 29 11 47 38 47 30 0 42-19 51-41l28 9C148-21 126 4 82 4 31 4 10-29 12-85c3-77 74-140 146-93 12 8 15 23 18 40l-31 5c-1-22-13-36-36-36-52 0-65 49-65 101" id="aN"/><path d="M111-194c62-3 86 47 72 106H45c-7 38 6 69 45 68 27-1 43-14 53-32l24 11C152-15 129 4 87 4 38 3 12-23 12-71c0-70 32-119 99-123zm44 81c14-66-71-72-95-28-4 8-8 17-11 28h106" id="aO"/><path d="M248-111c6-24 9-61-24-58-72 9-57 108-77 169h-31l26-142c3-37-50-30-64-10C52-115 50-51 37 0H6l36-190h30c-1 10-6 24-4 32 13-43 101-52 105 5 13-22 29-41 61-41 90 0 28 129 23 194h-31" id="aP"/><path d="M67-158c22-48 132-52 116 29L158 0h-32l25-140c3-38-53-32-70-12C52-117 51-52 38 0H6l36-190h30" id="aQ"/><path d="M51-54c-9 22 5 41 31 30L79-1C43 14 10-4 19-52l22-115H19l5-23h22l19-43h21l-9 43h35l-4 23H73" id="aR"/><path fill="#3a414a" d="M-30 75l5-23h40l57-290H31l4-23h72L42 75h-72" id="aS"/><g id="n"><use transform="matrix(0.05,0,0,0.05,0,0)" xlink:href="#aF"/><use transform="matrix(0.05185185185185186,0,0,0.05185185185185186,5,0)" xlink:href="#aG"/><use transform="matrix(0.05185185185185186,0,0,0.05185185185185186,9.096296296296297,0)" xlink:href="#aH"/><use transform="matrix(0.05185185185185186,0,0,0.05185185185185186,18.42962962962963,0)" xlink:href="#aI"/><use transform="matrix(0.05185185185185186,0,0,0.05185185185185186,30.200000000000003,0)" xlink:href="#aJ"/><use transform="matrix(0.05185185185185186,0,0,0.05185185185185186,40.57037037037038,0)" xlink:href="#aK"/><use transform="matrix(0.05185185185185186,0,0,0.05185185185185186,44.66666666666667,0)" xlink:href="#aG"/><use transform="matrix(0.05185185185185186,0,0,0.05185185185185186,48.762962962962966,0)" xlink:href="#aL"/><use transform="matrix(0.05185185185185186,0,0,0.05185185185185186,59.13333333333333,0)" xlink:href="#aM"/><use transform="matrix(0.05185185185185186,0,0,0.05185185185185186,71.57777777777778,0)" xlink:href="#aK"/><use transform="matrix(0.05185185185185186,0,0,0.05185185185185186,75.67407407407408,0)" xlink:href="#aJ"/><use transform="matrix(0.05185185185185186,0,0,0.05185185185185186,86.04444444444445,0)" xlink:href="#aN"/><use transform="matrix(0.05185185185185186,0,0,0.05185185185185186,95.37777777777778,0)" xlink:href="#aO"/><use transform="matrix(0.05185185185185186,0,0,0.05185185185185186,105.74814814814815,0)" xlink:href="#aP"/><use transform="matrix(0.05185185185185186,0,0,0.05185185185185186,121.25185185185185,0)" xlink:href="#aO"/><use transform="matrix(0.05185185185185186,0,0,0.05185185185185186,131.62222222222223,0)" xlink:href="#aQ"/><use transform="matrix(0.05185185185185186,0,0,0.05185185185185186,141.99259259259262,0)" xlink:href="#aR"/><use transform="matrix(0.05,0,0,0.05,147.1777777777778,0)" xlink:href="#aS"/></g><path fill="#3a414a" d="M11 0l48-248h184l-5 28H87l-15 79h140l-5 27H67L50-27h158l-5 27H11" id="aT"/><path fill="#3a414a" d="M6 0l50-261h32L37 0H6" id="aU"/><path fill="#3a414a" d="M55-144c13 50 104 24 104 88C159 21 15 23 1-39l26-10c6 40 102 42 102-4-13-50-104-23-104-87 0-71 143-71 148-8l-29 4c-5-35-85-37-89 0" id="aV"/><path fill="#3a414a" d="M111-194c62-3 86 47 72 106H45c-7 38 6 69 45 68 27-1 43-14 53-32l24 11C152-15 129 4 87 4 38 3 12-23 12-71c0-70 32-119 99-123zm44 81c14-66-71-72-95-28-4 8-8 17-11 28h106" id="aW"/><g id="o"><use transform="matrix(0.05,0,0,0.05,0,0)" xlink:href="#aF"/><use transform="matrix(0.05,0,0,0.05,5,0)" xlink:href="#aT"/><use transform="matrix(0.05,0,0,0.05,17,0)" xlink:href="#aU"/><use transform="matrix(0.05,0,0,0.05,20.95,0)" xlink:href="#aV"/><use transform="matrix(0.05,0,0,0.05,29.950000000000003,0)" xlink:href="#aW"/><use transform="matrix(0.05,0,0,0.05,39.95,0)" xlink:href="#aS"/></g><path d="M185-189c-5-48-123-54-124 2 14 75 158 14 163 119 3 78-121 87-175 55-17-10-28-26-33-46l33-7c5 56 141 63 141-1 0-78-155-14-162-118-5-82 145-84 179-34 5 7 8 16 11 25" id="aX"/><path d="M127-220V0H93v-220H8v-28h204v28h-85" id="aY"/><path d="M68-38c1 34 0 65-14 84H32c9-13 17-26 17-46H33v-38h35" id="aZ"/><g id="p"><use transform="matrix(0.05185185185185186,0,0,0.05185185185185186,0,0)" xlink:href="#af"/><use transform="matrix(0.05185185185185186,0,0,0.05185185185185186,10.370370370370372,0)" xlink:href="#X"/><use transform="matrix(0.05185185185185186,0,0,0.05185185185185186,20.740740740740744,0)" xlink:href="#ac"/><use transform="matrix(0.05185185185185186,0,0,0.05185185185185186,25.92592592592593,0)" xlink:href="#ai"/><use transform="matrix(0.05185185185185186,0,0,0.05185185185185186,38.37037037037038,0)" xlink:href="#aj"/><use transform="matrix(0.05185185185185186,0,0,0.05185185185185186,42.466666666666676,0)" xlink:href="#V"/><use transform="matrix(0.05185185185185186,0,0,0.05185185185185186,52.83703703703705,0)" xlink:href="#ah"/><use transform="matrix(0.05185185185185186,0,0,0.05185185185185186,62.170370370370385,0)" xlink:href="#X"/><use transform="matrix(0.05185185185185186,0,0,0.05185185185185186,72.54074074074076,0)" xlink:href="#W"/><use transform="matrix(0.05185185185185186,0,0,0.05185185185185186,88.04444444444447,0)" xlink:href="#X"/><use transform="matrix(0.05185185185185186,0,0,0.05185185185185186,98.41481481481483,0)" xlink:href="#aa"/><use transform="matrix(0.05185185185185186,0,0,0.05185185185185186,108.7851851851852,0)" xlink:href="#ac"/><use transform="matrix(0.05185185185185186,0,0,0.05185185185185186,113.97037037037039,0)" xlink:href="#aX"/><use transform="matrix(0.05185185185185186,0,0,0.05185185185185186,126.41481481481483,0)" xlink:href="#ah"/><use transform="matrix(0.05185185185185186,0,0,0.05185185185185186,135.74814814814818,0)" xlink:href="#ab"/><use transform="matrix(0.05185185185185186,0,0,0.05185185185185186,146.11851851851856,0)" xlink:href="#ae"/><use transform="matrix(0.05185185185185186,0,0,0.05185185185185186,152.28888888888892,0)" xlink:href="#X"/><use transform="matrix(0.05185185185185186,0,0,0.05185185185185186,162.6592592592593,0)" xlink:href="#an"/><use transform="matrix(0.05185185185185186,0,0,0.05185185185185186,168.82962962962966,0)" xlink:href="#aY"/><use transform="matrix(0.05185185185185186,0,0,0.05185185185185186,179.51111111111115,0)" xlink:href="#Y"/><use transform="matrix(0.05185185185185186,0,0,0.05185185185185186,183.60740740740744,0)" xlink:href="#aj"/><use transform="matrix(0.05185185185185186,0,0,0.05185185185185186,187.70370370370372,0)" xlink:href="#X"/><use transform="matrix(0.05185185185185186,0,0,0.05185185185185186,198.0740740740741,0)" xlink:href="#ai"/><use transform="matrix(0.05185185185185186,0,0,0.05185185185185186,210.51851851851856,0)" xlink:href="#aj"/><use transform="matrix(0.05185185185185186,0,0,0.05185185185185186,214.61481481481485,0)" xlink:href="#V"/><use transform="matrix(0.05185185185185186,0,0,0.05185185185185186,224.9851851851852,0)" xlink:href="#ah"/><use transform="matrix(0.05185185185185186,0,0,0.05185185185185186,234.3185185185186,0)" xlink:href="#X"/><use transform="matrix(0.05185185185185186,0,0,0.05185185185185186,244.68888888888895,0)" xlink:href="#W"/><use transform="matrix(0.05185185185185186,0,0,0.05185185185185186,260.19259259259263,0)" xlink:href="#X"/><use transform="matrix(0.05185185185185186,0,0,0.05185185185185186,270.562962962963,0)" xlink:href="#aa"/><use transform="matrix(0.05185185185185186,0,0,0.05185185185185186,280.9333333333334,0)" xlink:href="#ac"/><use transform="matrix(0.05185185185185186,0,0,0.05185185185185186,286.11851851851856,0)" xlink:href="#aZ"/></g><path d="M233-177c-1 41-23 64-60 70L243 0h-38l-65-103H63V0H30v-248c88 3 205-21 203 71zM63-129c60-2 137 13 137-47 0-61-80-42-137-45v92" id="ba"/><g id="q"><use transform="matrix(0.05185185185185186,0,0,0.05185185185185186,0,0)" xlink:href="#aX"/><use transform="matrix(0.05185185185185186,0,0,0.05185185185185186,12.444444444444446,0)" xlink:href="#ah"/><use transform="matrix(0.05185185185185186,0,0,0.05185185185185186,21.77777777777778,0)" xlink:href="#ab"/><use transform="matrix(0.05185185185185186,0,0,0.05185185185185186,32.14814814814815,0)" xlink:href="#ae"/><use transform="matrix(0.05185185185185186,0,0,0.05185185185185186,38.31851851851852,0)" xlink:href="#Y"/><use transform="matrix(0.05185185185185186,0,0,0.05185185185185186,42.41481481481482,0)" xlink:href="#aa"/><use transform="matrix(0.05185185185185186,0,0,0.05185185185185186,52.78518518518519,0)" xlink:href="#af"/><use transform="matrix(0.05185185185185186,0,0,0.05185185185185186,63.155555555555566,0)" xlink:href="#ba"/><use transform="matrix(0.05185185185185186,0,0,0.05185185185185186,76.5851851851852,0)" xlink:href="#ar"/><use transform="matrix(0.05185185185185186,0,0,0.05185185185185186,86.95555555555556,0)" xlink:href="#aj"/><use transform="matrix(0.05185185185185186,0,0,0.05185185185185186,91.05185185185186,0)" xlink:href="#X"/><use transform="matrix(0.05185185185185186,0,0,0.05185185185185186,101.42222222222223,0)" xlink:href="#Z"/><use transform="matrix(0.05185185185185186,0,0,0.05185185185185186,110.75555555555557,0)" xlink:href="#ao"/></g><g id="r"><use transform="matrix(0.05185185185185186,0,0,0.05185185185185186,0,0)" xlink:href="#ar"/><use transform="matrix(0.05185185185185186,0,0,0.05185185185185186,10.370370370370372,0)" xlink:href="#as"/><use transform="matrix(0.05185185185185186,0,0,0.05185185185185186,20.740740740740744,0)" xlink:href="#at"/><use transform="matrix(0.05185185185185186,0,0,0.05185185185185186,31.111111111111114,0)" xlink:href="#V"/><use transform="matrix(0.05185185185185186,0,0,0.05185185185185186,41.48148148148149,0)" xlink:href="#ac"/><use transform="matrix(0.05185185185185186,0,0,0.05185185185185186,46.66666666666667,0)" xlink:href="#X"/><use transform="matrix(0.05185185185185186,0,0,0.05185185185185186,57.037037037037045,0)" xlink:href="#aX"/><use transform="matrix(0.05185185185185186,0,0,0.05185185185185186,69.4814814814815,0)" xlink:href="#ah"/><use transform="matrix(0.05185185185185186,0,0,0.05185185185185186,78.81481481481482,0)" xlink:href="#ab"/><use transform="matrix(0.05185185185185186,0,0,0.05185185185185186,89.18518518518519,0)" xlink:href="#ae"/><use transform="matrix(0.05185185185185186,0,0,0.05185185185185186,95.35555555555555,0)" xlink:href="#X"/><use transform="matrix(0.05185185185185186,0,0,0.05185185185185186,105.72592592592592,0)" xlink:href="#an"/><use transform="matrix(0.05185185185185186,0,0,0.05185185185185186,111.89629629629631,0)" xlink:href="#Z"/><use transform="matrix(0.05185185185185186,0,0,0.05185185185185186,121.22962962962961,0)" xlink:href="#ah"/><use transform="matrix(0.05185185185185186,0,0,0.05185185185185186,130.56296296296296,0)" xlink:href="#ab"/><use transform="matrix(0.05185185185185186,0,0,0.05185185185185186,140.93333333333334,0)" xlink:href="#ae"/><use transform="matrix(0.05185185185185186,0,0,0.05185185185185186,147.1037037037037,0)" xlink:href="#X"/><use transform="matrix(0.05185185185185186,0,0,0.05185185185185186,157.47407407407408,0)" xlink:href="#aZ"/></g><g id="s"><use transform="matrix(0.05185185185185186,0,0,0.05185185185185186,0,0)" xlink:href="#as"/><use transform="matrix(0.05185185185185186,0,0,0.05185185185185186,10.370370370370372,0)" xlink:href="#aj"/><use transform="matrix(0.05185185185185186,0,0,0.05185185185185186,14.466666666666669,0)" xlink:href="#V"/><use transform="matrix(0.05185185185185186,0,0,0.05185185185185186,24.837037037037042,0)" xlink:href="#ak"/><use transform="matrix(0.05185185185185186,0,0,0.05185185185185186,34.17037037037038,0)" xlink:href="#X"/><use transform="matrix(0.05185185185185186,0,0,0.05185185185185186,44.54074074074075,0)" xlink:href="#ae"/><use transform="matrix(0.05185185185185186,0,0,0.05185185185185186,50.71111111111112,0)" xlink:href="#al"/><use transform="matrix(0.05185185185185186,0,0,0.05185185185185186,55.8962962962963,0)" xlink:href="#at"/><use transform="matrix(0.05185185185185186,0,0,0.05185185185185186,66.26666666666668,0)" xlink:href="#ao"/></g><g id="t"><use transform="matrix(0.05185185185185186,0,0,0.05185185185185186,0,0)" xlink:href="#X"/><use transform="matrix(0.05185185185185186,0,0,0.05185185185185186,10.370370370370372,0)" xlink:href="#aa"/><use transform="matrix(0.05185185185185186,0,0,0.05185185185185186,20.740740740740744,0)" xlink:href="#at"/><use transform="matrix(0.05185185185185186,0,0,0.05185185185185186,31.111111111111114,0)" xlink:href="#U"/><use transform="matrix(0.05185185185185186,0,0,0.05185185185185186,45.62962962962963,0)" xlink:href="#V"/><use transform="matrix(0.05185185185185186,0,0,0.05185185185185186,56.00000000000001,0)" xlink:href="#W"/><use transform="matrix(0.05185185185185186,0,0,0.05185185185185186,71.5037037037037,0)" xlink:href="#X"/><use transform="matrix(0.05185185185185186,0,0,0.05185185185185186,81.87407407407407,0)" xlink:href="#an"/><use transform="matrix(0.05185185185185186,0,0,0.05185185185185186,88.04444444444445,0)" xlink:href="#ao"/></g><path d="M26 75v-336h71v23H56V52h41v23H26" id="bb"/><path d="M3 75V52h41v-290H3v-23h71V75H3" id="bc"/><g id="u"><use transform="matrix(0.05185185185185186,0,0,0.05185185185185186,0,0)" xlink:href="#bb"/><use transform="matrix(0.05185185185185186,0,0,0.05185185185185186,5.185185185185186,0)" xlink:href="#ab"/><use transform="matrix(0.05185185185185186,0,0,0.05185185185185186,15.555555555555557,0)" xlink:href="#as"/><use transform="matrix(0.05185185185185186,0,0,0.05185185185185186,25.92592592592593,0)" xlink:href="#ac"/><use transform="matrix(0.05185185185185186,0,0,0.05185185185185186,31.11111111111112,0)" xlink:href="#Y"/><use transform="matrix(0.05185185185185186,0,0,0.05185185185185186,35.207407407407416,0)" xlink:href="#ab"/><use transform="matrix(0.05185185185185186,0,0,0.05185185185185186,45.57777777777779,0)" xlink:href="#aa"/><use transform="matrix(0.05185185185185186,0,0,0.05185185185185186,55.948148148148164,0)" xlink:href="#V"/><use transform="matrix(0.05185185185185186,0,0,0.05185185185185186,66.31851851851853,0)" xlink:href="#aj"/><use transform="matrix(0.05185185185185186,0,0,0.05185185185185186,70.41481481481483,0)" xlink:href="#bc"/></g><g id="v"><use transform="matrix(0.05185185185185186,0,0,0.05185185185185186,0,0)" xlink:href="#af"/><use transform="matrix(0.05185185185185186,0,0,0.05185185185185186,10.370370370370372,0)" xlink:href="#X"/><use transform="matrix(0.05185185185185186,0,0,0.05185185185185186,20.740740740740744,0)" xlink:href="#ac"/><use transform="matrix(0.05185185185185186,0,0,0.05185185185185186,25.92592592592593,0)" xlink:href="#U"/><use transform="matrix(0.05185185185185186,0,0,0.05185185185185186,40.44444444444445,0)" xlink:href="#V"/><use transform="matrix(0.05185185185185186,0,0,0.05185185185185186,50.814814814814824,0)" xlink:href="#W"/><use transform="matrix(0.05185185185185186,0,0,0.05185185185185186,66.31851851851853,0)" xlink:href="#X"/><use transform="matrix(0.05185185185185186,0,0,0.05185185185185186,76.6888888888889,0)" xlink:href="#aX"/><use transform="matrix(0.05185185185185186,0,0,0.05185185185185186,89.13333333333334,0)" xlink:href="#ac"/><use transform="matrix(0.05185185185185186,0,0,0.05185185185185186,94.31851851851853,0)" xlink:href="#V"/><use transform="matrix(0.05185185185185186,0,0,0.05185185185185186,104.6888888888889,0)" xlink:href="#ac"/><use transform="matrix(0.05185185185185186,0,0,0.05185185185185186,109.87407407407409,0)" xlink:href="#X"/><use transform="matrix(0.05185185185185186,0,0,0.05185185185185186,120.24444444444445,0)" xlink:href="#an"/><use transform="matrix(0.05185185185185186,0,0,0.05185185185185186,126.41481481481483,0)" xlink:href="#ao"/></g><path d="M137 0h-34L2-248h35l83 218 83-218h36" id="bd"/><g id="w"><use transform="matrix(0.05185185185185186,0,0,0.05185185185185186,0,0)" xlink:href="#Y"/><use transform="matrix(0.05185185185185186,0,0,0.05185185185185186,4.0962962962962965,0)" xlink:href="#Z"/><use transform="matrix(0.05185185185185186,0,0,0.05185185185185186,13.42962962962963,0)" xlink:href="#bd"/><use transform="matrix(0.05185185185185186,0,0,0.05185185185185186,24.474074074074075,0)" xlink:href="#V"/><use transform="matrix(0.05185185185185186,0,0,0.05185185185185186,34.84444444444445,0)" xlink:href="#aj"/><use transform="matrix(0.05185185185185186,0,0,0.05185185185185186,38.94074074074074,0)" xlink:href="#Y"/><use transform="matrix(0.05185185185185186,0,0,0.05185185185185186,43.03703703703704,0)" xlink:href="#at"/><use transform="matrix(0.05185185185185186,0,0,0.05185185185185186,53.40740740740741,0)" xlink:href="#ai"/><use transform="matrix(0.05185185185185186,0,0,0.05185185185185186,65.85185185185186,0)" xlink:href="#aj"/><use transform="matrix(0.05185185185185186,0,0,0.05185185185185186,69.94814814814816,0)" xlink:href="#V"/><use transform="matrix(0.05185185185185186,0,0,0.05185185185185186,80.31851851851853,0)" xlink:href="#ah"/><use transform="matrix(0.05185185185185186,0,0,0.05185185185185186,89.65185185185186,0)" xlink:href="#X"/><use transform="matrix(0.05185185185185186,0,0,0.05185185185185186,100.02222222222223,0)" xlink:href="#W"/><use transform="matrix(0.05185185185185186,0,0,0.05185185185185186,115.52592592592593,0)" xlink:href="#X"/><use transform="matrix(0.05185185185185186,0,0,0.05185185185185186,125.89629629629631,0)" xlink:href="#aa"/><use transform="matrix(0.05185185185185186,0,0,0.05185185185185186,136.26666666666668,0)" xlink:href="#ac"/><use transform="matrix(0.05185185185185186,0,0,0.05185185185185186,141.45185185185187,0)" xlink:href="#an"/><use transform="matrix(0.05185185185185186,0,0,0.05185185185185186,147.62222222222223,0)" xlink:href="#aY"/><use transform="matrix(0.05185185185185186,0,0,0.05185185185185186,158.30370370370372,0)" xlink:href="#Y"/><use transform="matrix(0.05185185185185186,0,0,0.05185185185185186,162.4,0)" xlink:href="#aj"/><use transform="matrix(0.05185185185185186,0,0,0.05185185185185186,166.4962962962963,0)" xlink:href="#X"/><use transform="matrix(0.05185185185185186,0,0,0.05185185185185186,176.86666666666667,0)" xlink:href="#ai"/><use transform="matrix(0.05185185185185186,0,0,0.05185185185185186,189.31111111111113,0)" xlink:href="#aj"/><use transform="matrix(0.05185185185185186,0,0,0.05185185185185186,193.40740740740742,0)" xlink:href="#V"/><use transform="matrix(0.05185185185185186,0,0,0.05185185185185186,203.7777777777778,0)" xlink:href="#ah"/><use transform="matrix(0.05185185185185186,0,0,0.05185185185185186,213.11111111111114,0)" xlink:href="#X"/><use transform="matrix(0.05185185185185186,0,0,0.05185185185185186,223.4814814814815,0)" xlink:href="#W"/><use transform="matrix(0.05185185185185186,0,0,0.05185185185185186,238.9851851851852,0)" xlink:href="#X"/><use transform="matrix(0.05185185185185186,0,0,0.05185185185185186,249.35555555555564,0)" xlink:href="#aa"/><use transform="matrix(0.05185185185185186,0,0,0.05185185185185186,259.725925925926,0)" xlink:href="#ac"/><use transform="matrix(0.05185185185185186,0,0,0.05185185185185186,264.91111111111115,0)" xlink:href="#aZ"/></g><g id="x"><use transform="matrix(0.05185185185185186,0,0,0.05185185185185186,0,0)" xlink:href="#ai"/><use transform="matrix(0.05185185185185186,0,0,0.05185185185185186,12.444444444444446,0)" xlink:href="#aj"/><use transform="matrix(0.05185185185185186,0,0,0.05185185185185186,16.540740740740745,0)" xlink:href="#V"/><use transform="matrix(0.05185185185185186,0,0,0.05185185185185186,26.91111111111112,0)" xlink:href="#ah"/><use transform="matrix(0.05185185185185186,0,0,0.05185185185185186,36.244444444444454,0)" xlink:href="#X"/><use transform="matrix(0.05185185185185186,0,0,0.05185185185185186,46.61481481481483,0)" xlink:href="#W"/><use transform="matrix(0.05185185185185186,0,0,0.05185185185185186,62.118518518518535,0)" xlink:href="#X"/><use transform="matrix(0.05185185185185186,0,0,0.05185185185185186,72.48888888888891,0)" xlink:href="#aa"/><use transform="matrix(0.05185185185185186,0,0,0.05185185185185186,82.85925925925928,0)" xlink:href="#ac"/><use transform="matrix(0.05185185185185186,0,0,0.05185185185185186,88.04444444444447,0)" xlink:href="#ba"/><use transform="matrix(0.05185185185185186,0,0,0.05185185185185186,101.4740740740741,0)" xlink:href="#ar"/><use transform="matrix(0.05185185185185186,0,0,0.05185185185185186,111.84444444444446,0)" xlink:href="#aj"/><use transform="matrix(0.05185185185185186,0,0,0.05185185185185186,115.94074074074075,0)" xlink:href="#X"/><use transform="matrix(0.05185185185185186,0,0,0.05185185185185186,126.31111111111113,0)" xlink:href="#Z"/><use transform="matrix(0.05185185185185186,0,0,0.05185185185185186,135.64444444444447,0)" xlink:href="#ao"/></g><path fill="#3a414a" d="M76-208v77h127v40H76V0H24v-248h183v40H76" id="be"/><path fill="#3a414a" d="M25 0v-261h50V0H25" id="bf"/><path fill="#3a414a" d="M110-194c64 0 96 36 96 99 0 64-35 99-97 99-61 0-95-36-95-99 0-62 34-99 96-99zm-1 164c35 0 45-28 45-65 0-40-10-65-43-65-34 0-45 26-45 65 0 36 10 65 43 65" id="bg"/><path fill="#3a414a" d="M25-224v-37h50v37H25zM25 0v-190h50V0H25" id="bh"/><path fill="#3a414a" d="M135-194c87-1 58 113 63 194h-50c-7-57 23-157-34-157-59 0-34 97-39 157H25l-1-190h47c2 12-1 28 3 38 12-26 28-41 61-42" id="bi"/><path fill="#3a414a" d="M195-6C206 82 75 100 31 46c-4-6-6-13-8-21l49-6c3 16 16 24 34 25 40 0 42-37 40-79-11 22-30 35-61 35-53 0-70-43-70-97 0-56 18-96 73-97 30 0 46 14 59 34l2-30h47zm-90-29c32 0 41-27 41-63 0-35-9-62-40-62-32 0-39 29-40 63 0 36 9 62 39 62" id="bj"/><g id="y"><use transform="matrix(0.05,0,0,0.05,0,0)" xlink:href="#be"/><use transform="matrix(0.05,0,0,0.05,10.950000000000001,0)" xlink:href="#bf"/><use transform="matrix(0.05,0,0,0.05,15.950000000000001,0)" xlink:href="#bg"/><use transform="matrix(0.05,0,0,0.05,26.900000000000002,0)" xlink:href="#J"/><use transform="matrix(0.05,0,0,0.05,36.900000000000006,0)" xlink:href="#N"/><use transform="matrix(0.05,0,0,0.05,42.85000000000001,0)" xlink:href="#bh"/><use transform="matrix(0.05,0,0,0.05,47.85000000000001,0)" xlink:href="#bi"/><use transform="matrix(0.05,0,0,0.05,58.80000000000001,0)" xlink:href="#bj"/><path fill="#3a414a" d="M-.9.97h76.55v1.9H-.9z"/></g><path fill="#3a414a" d="M137-138c1-29-70-34-71-4 15 46 118 7 119 86 1 83-164 76-172 9l43-7c4 19 20 25 44 25 33 8 57-30 24-41C81-84 22-81 20-136c-2-80 154-74 161-7" id="bk"/><path fill="#3a414a" d="M35-132v-50h50v50H35zM35 0v-49h50V0H35" id="bl"/><g id="z"><use transform="matrix(0.05,0,0,0.05,0,0)" xlink:href="#K"/><use transform="matrix(0.05,0,0,0.05,16,0)" xlink:href="#L"/><use transform="matrix(0.05,0,0,0.05,26,0)" xlink:href="#bk"/><use transform="matrix(0.05,0,0,0.05,36,0)" xlink:href="#bk"/><use transform="matrix(0.05,0,0,0.05,46,0)" xlink:href="#J"/><use transform="matrix(0.05,0,0,0.05,56,0)" xlink:href="#bj"/><use transform="matrix(0.05,0,0,0.05,66.95,0)" xlink:href="#L"/><use transform="matrix(0.05,0,0,0.05,76.95,0)" xlink:href="#bk"/><use transform="matrix(0.05,0,0,0.05,86.95,0)" xlink:href="#bl"/><path fill="#3a414a" d="M-.9.97h94.7v1.9H-.9z"/></g><path fill="#3a414a" d="M17-49c1-102 45-165 103-212h30C92-210 49-145 49-46 49 4 63 43 85 75H54C30 43 18 2 17-49" id="bm"/><path fill="#3a414a" d="M125-24c46 0 70-25 89-51l25 16C214-24 183 4 123 4 8 4-5-146 60-208c32-50 158-61 191-5 5 7 9 14 11 22l-32 10c-9-28-33-43-69-43-74 0-108 51-108 125 0 46 24 75 72 75" id="bn"/><path fill="#3a414a" d="M165-48c-4 18 1 34 23 27l-3 20c-29 8-62 0-52-35h-2C116-14 99 4 63 4 30 4 8-16 8-49c0-68 71-67 138-67 10-26 0-56-31-54-26 1-42 9-47 31l-32-5c8-67 160-71 144 15-5 28-9 54-15 81zM42-50c3 52 80 24 89-6 7-12 7-24 11-38-47 1-103-4-100 44" id="bo"/><path fill="#3a414a" d="M67-158c22-48 132-52 116 29L158 0h-32l25-140c3-38-53-32-70-12C52-117 51-52 38 0H6l36-190h30" id="bp"/><g id="A"><use transform="matrix(0.05,0,0,0.05,0,0)" xlink:href="#bm"/><use transform="matrix(0.05,0,0,0.05,5.95,0)" xlink:href="#bn"/><use transform="matrix(0.05,0,0,0.05,18.900000000000002,0)" xlink:href="#bo"/><use transform="matrix(0.05,0,0,0.05,28.900000000000002,0)" xlink:href="#bp"/></g><path fill="#3a414a" d="M30-147c31-64 166-65 159 27C183-49 158 1 86 4 9 8 1-88 30-147zM88-20c53 0 68-48 68-100 0-31-11-51-44-50-52 1-68 46-68 97 0 32 13 53 44 53" id="bq"/><path fill="#3a414a" d="M44-68c0 29 11 47 38 47 30 0 42-19 51-41l28 9C148-21 126 4 82 4 31 4 10-29 12-85c3-77 74-140 146-93 12 8 15 23 18 40l-31 5c-1-22-13-36-36-36-52 0-65 49-65 101" id="br"/><path fill="#3a414a" d="M67 3c-93-2-31-127-26-193h32L48-50c-3 39 53 32 70 12 30-34 30-101 43-152h32L157 0h-30c1-10 6-24 4-33-14 20-29 37-64 36" id="bs"/><path fill="#3a414a" d="M66-151c12-25 30-51 66-40l-6 26C45-176 58-65 38 0H6l36-190h30" id="bt"/><g id="B"><use transform="matrix(0.05,0,0,0.05,0,0)" xlink:href="#bq"/><use transform="matrix(0.05,0,0,0.05,10,0)" xlink:href="#br"/><use transform="matrix(0.05,0,0,0.05,19,0)" xlink:href="#br"/><use transform="matrix(0.05,0,0,0.05,28,0)" xlink:href="#bs"/><use transform="matrix(0.05,0,0,0.05,38,0)" xlink:href="#bt"/></g><path fill="#3a414a" d="M198-190L69 30C53 58 25 83-20 72c4-11-1-27 19-22 33-1 43-29 59-52L20-190h32L79-34l84-156h35" id="bu"/><path fill="#3a414a" d="M188 0h-37l-8-164L71 0H34L18-190h31l8 164 75-164h34l8 164 74-164h31" id="bv"/><path fill="#3a414a" d="M67-158c15-20 31-36 64-36 94 0 33 127 27 194h-32l25-140c3-38-53-32-70-12C52-117 51-51 37 0H6l51-261h31" id="bw"/><g id="C"><use transform="matrix(0.05,0,0,0.05,0,0)" xlink:href="#bo"/><use transform="matrix(0.05,0,0,0.05,10,0)" xlink:href="#bp"/><use transform="matrix(0.05,0,0,0.05,20,0)" xlink:href="#bu"/><use transform="matrix(0.05,0,0,0.05,29,0)" xlink:href="#bv"/><use transform="matrix(0.05,0,0,0.05,41.95,0)" xlink:href="#bw"/><use transform="matrix(0.05,0,0,0.05,51.95,0)" xlink:href="#aW"/><use transform="matrix(0.05,0,0,0.05,61.95,0)" xlink:href="#bt"/><use transform="matrix(0.05,0,0,0.05,67.9,0)" xlink:href="#aW"/></g><g id="D"><use transform="matrix(0.05,0,0,0.05,0,0)" xlink:href="#aD"/><use transform="matrix(0.05,0,0,0.05,3.95,0)" xlink:href="#bp"/></g><path fill="#3a414a" d="M51-54c-9 22 5 41 31 30L79-1C43 14 10-4 19-52l22-115H19l5-23h22l19-43h21l-9 43h35l-4 23H73" id="bx"/><g id="E"><use transform="matrix(0.05,0,0,0.05,0,0)" xlink:href="#bx"/><use transform="matrix(0.05,0,0,0.05,5,0)" xlink:href="#bw"/><use transform="matrix(0.05,0,0,0.05,15,0)" xlink:href="#aW"/></g><path fill="#3a414a" d="M133-28C103 26-5 8 13-77c13-62 24-115 90-117 29-1 46 15 56 35l19-102h32L160 0h-30zM45-64c-2 27 10 43 35 43 54-1 69-50 69-103 0-29-15-46-42-46-53-1-58 58-62 106" id="by"/><path fill="#3a414a" d="M98-137C97-35 54 29-4 75h-31C23 23 67-41 67-140c0-50-15-89-37-121h31c24 32 36 73 37 124" id="bz"/><g id="F"><use transform="matrix(0.05,0,0,0.05,0,0)" xlink:href="#bq"/><use transform="matrix(0.05,0,0,0.05,10,0)" xlink:href="#bt"/><use transform="matrix(0.05,0,0,0.05,15.949999999999998,0)" xlink:href="#by"/><use transform="matrix(0.05,0,0,0.05,25.950000000000003,0)" xlink:href="#aW"/><use transform="matrix(0.05,0,0,0.05,35.95,0)" xlink:href="#bt"/><use transform="matrix(0.05,0,0,0.05,41.900000000000006,0)" xlink:href="#bz"/></g><g id="G"><use transform="matrix(0.05185185185185186,0,0,0.05185185185185186,0,0)" xlink:href="#Z"/><use transform="matrix(0.05185185185185186,0,0,0.05185185185185186,9.333333333333334,0)" xlink:href="#X"/><use transform="matrix(0.05185185185185186,0,0,0.05185185185185186,19.703703703703706,0)" xlink:href="#ac"/><use transform="matrix(0.05185185185185186,0,0,0.05185185185185186,24.888888888888893,0)" xlink:href="#U"/><use transform="matrix(0.05185185185185186,0,0,0.05185185185185186,39.40740740740741,0)" xlink:href="#V"/><use transform="matrix(0.05185185185185186,0,0,0.05185185185185186,49.777777777777786,0)" xlink:href="#W"/><use transform="matrix(0.05185185185185186,0,0,0.05185185185185186,65.28148148148149,0)" xlink:href="#X"/><use transform="matrix(0.05185185185185186,0,0,0.05185185185185186,75.65185185185186,0)" xlink:href="#aX"/><use transform="matrix(0.05185185185185186,0,0,0.05185185185185186,88.0962962962963,0)" xlink:href="#ac"/><use transform="matrix(0.05185185185185186,0,0,0.05185185185185186,93.28148148148149,0)" xlink:href="#V"/><use transform="matrix(0.05185185185185186,0,0,0.05185185185185186,103.65185185185186,0)" xlink:href="#ac"/><use transform="matrix(0.05185185185185186,0,0,0.05185185185185186,108.83703703703705,0)" xlink:href="#X"/><use transform="matrix(0.05185185185185186,0,0,0.05185185185185186,119.20740740740742,0)" xlink:href="#an"/><use transform="matrix(0.05185185185185186,0,0,0.05185185185185186,125.3777777777778,0)" xlink:href="#ao"/></g><g id="H"><use transform="matrix(0.05185185185185186,0,0,0.05185185185185186,0,0)" xlink:href="#af"/><use transform="matrix(0.05185185185185186,0,0,0.05185185185185186,10.370370370370372,0)" xlink:href="#X"/><use transform="matrix(0.05185185185185186,0,0,0.05185185185185186,20.740740740740744,0)" xlink:href="#ac"/><use transform="matrix(0.05185185185185186,0,0,0.05185185185185186,25.92592592592593,0)" xlink:href="#U"/><use transform="matrix(0.05185185185185186,0,0,0.05185185185185186,40.44444444444445,0)" xlink:href="#V"/><use transform="matrix(0.05185185185185186,0,0,0.05185185185185186,50.814814814814824,0)" xlink:href="#W"/><use transform="matrix(0.05185185185185186,0,0,0.05185185185185186,66.31851851851853,0)" xlink:href="#X"/><use transform="matrix(0.05185185185185186,0,0,0.05185185185185186,76.6888888888889,0)" xlink:href="#aX"/><use transform="matrix(0.05185185185185186,0,0,0.05185185185185186,89.13333333333334,0)" xlink:href="#ac"/><use transform="matrix(0.05185185185185186,0,0,0.05185185185185186,94.31851851851853,0)" xlink:href="#V"/><use transform="matrix(0.05185185185185186,0,0,0.05185185185185186,104.6888888888889,0)" xlink:href="#ac"/><use transform="matrix(0.05185185185185186,0,0,0.05185185185185186,109.87407407407409,0)" xlink:href="#ar"/><use transform="matrix(0.05185185185185186,0,0,0.05185185185185186,120.24444444444445,0)" xlink:href="#Z"/><use transform="matrix(0.05185185185185186,0,0,0.05185185185185186,129.57777777777778,0)" xlink:href="#an"/><use transform="matrix(0.05185185185185186,0,0,0.05185185185185186,135.74814814814815,0)" xlink:href="#ao"/></g></defs></g></svg>